<svg xmlns="http://www.w3.org/2000/svg" width="21.739" height="20.386" viewBox="0 0 21.739 20.386"><defs><style>.a{fill:#581008;}</style></defs><g transform="translate(-31 -4.049)"><path class="a" d="M52.739,94.348c-5.065-.052-7.413,0-8.571,0h-8L35.205,90H31v1.449h3.041L36.8,103.985a3.5,3.5,0,0,0,1.793,3.055,2.173,2.173,0,1,0,3.879.446h4.6a2.173,2.173,0,1,0,2.049-1.449H40.3a2.056,2.056,0,0,1-2-1.59l14.439-2.888Zm-3.623,13.14a.725.725,0,1,1-.725.725A.725.725,0,0,1,49.115,107.487Zm-8.7,0a.725.725,0,1,1-.725.725A.725.725,0,0,1,40.42,107.487Zm10.869-7.116-13.213,2.643L36.484,95.8H51.289Z" transform="translate(0 -85.951)"/></g></svg>