<svg xmlns="http://www.w3.org/2000/svg" width="22.781" height="22.781" viewBox="0 0 22.781 22.781"><defs><style>.a{fill:#581008;fill-rule:evenodd;}</style></defs><path class="a" d="M18.773,7.758a11.288,11.288,0,0,1,5.75,1.564A11.506,11.506,0,0,1,27.4,26.7a11.606,11.606,0,0,1-6.427,3.838V22.351h2.234l.505-3.218H20.33V17.026a1.832,1.832,0,0,1,.39-1.21,1.781,1.781,0,0,1,1.429-.544h2.043V12.454q-.044-.014-.834-.112a16.583,16.583,0,0,0-1.8-.112,4.5,4.5,0,0,0-3.231,1.152,4.453,4.453,0,0,0-1.214,3.306v2.445H14.538v3.218h2.574v8.188A11.327,11.327,0,0,1,10.146,26.7,11.492,11.492,0,0,1,13.024,9.322a11.292,11.292,0,0,1,5.75-1.564Z" transform="translate(-7.383 -7.758)"/></svg>