<svg xmlns="http://www.w3.org/2000/svg" width="22.781" height="22.781" viewBox="0 0 22.781 22.781"><defs><style>.a{fill:#581008;fill-rule:evenodd;}</style></defs><path class="a" d="M19.59,22.482a2.837,2.837,0,1,1-2.881,2.837A2.859,2.859,0,0,1,19.59,22.482Zm0-1.134a3.972,3.972,0,1,0,4.034,3.971,4,4,0,0,0-4.034-3.971Zm4.159-.955A1.135,1.135,0,1,0,24.9,21.528,1.135,1.135,0,0,0,23.749,20.393Zm-6.974-1.235h5.632a3.292,3.292,0,0,1,3.317,3.265v5.79a3.292,3.292,0,0,1-3.317,3.265H16.774a3.292,3.292,0,0,1-3.317-3.265v-5.79A3.292,3.292,0,0,1,16.774,19.158Zm-.531-1.129A3.913,3.913,0,0,0,12.3,21.91v6.817a3.913,3.913,0,0,0,3.943,3.882h6.694a3.913,3.913,0,0,0,3.943-3.882V21.91a3.913,3.913,0,0,0-3.943-3.882Zm3.347-4.1A11.391,11.391,0,1,1,8.2,25.319,11.391,11.391,0,0,1,19.59,13.928Z" transform="translate(-8.2 -13.928)"/></svg>