<svg xmlns="http://www.w3.org/2000/svg" width="20.505" height="20.505" viewBox="0 0 20.505 20.505"><defs><style>.a{fill:#581008;}</style></defs><path class="a" d="M10.252,0A10.252,10.252,0,1,0,20.5,10.252,10.253,10.253,0,0,0,10.252,0ZM7.273,15.5h-2.5V7.987h2.5ZM6.025,6.961H6.008a1.3,1.3,0,1,1,.033-2.6,1.3,1.3,0,1,1-.017,2.6ZM16.276,15.5h-2.5V11.48c0-1.01-.362-1.7-1.265-1.7a1.367,1.367,0,0,0-1.281.913,1.71,1.71,0,0,0-.082.609v4.2h-2.5s.033-6.807,0-7.512h2.5V9.05A2.479,2.479,0,0,1,13.4,7.81c1.643,0,2.875,1.074,2.875,3.381Zm0,0"/></svg>