<svg xmlns="http://www.w3.org/2000/svg" xmlns:xlink="http://www.w3.org/1999/xlink" width="131" height="131" viewBox="0 0 131 131"><defs><style>.a,.c{fill:#581008;}.a{stroke:#707070;}.b{clip-path:url(#a);}.c{fill-rule:evenodd;}</style><clipPath id="a"><rect class="a" width="131" height="131" transform="translate(50.768 60.768)"/></clipPath></defs><g class="b" transform="translate(-50.768 -60.768)"><g transform="translate(51 73.673)"><g transform="translate(0)"><path class="c" d="M47.184,90.795a.93.93,0,1,1-.93.93.93.93,0,0,1,.93-.93M86.91,92.231a1.414,1.414,0,0,0-.476-.607.606.606,0,0,0-.614-.045.584.584,0,0,0-.231.175.6.6,0,0,0-.123.242.844.844,0,0,0-.022.275.949.949,0,0,0,.078.279.715.715,0,0,0,.424.421.807.807,0,0,0,.584-.052,1.432,1.432,0,0,0,.268-.167,1.839,1.839,0,0,0,.227-.2c-.019-.052-.033-.108-.056-.164a1.6,1.6,0,0,0-.06-.156Zm.707-.309a2.7,2.7,0,0,1,.253,1,2.623,2.623,0,0,1-.123.964,3.108,3.108,0,0,1-.443.871,3.438,3.438,0,0,1-.711.722l-.461-.551a2.705,2.705,0,0,0,.744-.845,1.961,1.961,0,0,0,.242-.93,1.65,1.65,0,0,1-.22.19,1.6,1.6,0,0,1-.257.153,1.488,1.488,0,0,1-1.09.112,1.25,1.25,0,0,1-.744-.714,1.545,1.545,0,0,1-.13-.554,1.38,1.38,0,0,1,.082-.54,1.351,1.351,0,0,1,.29-.469,1.634,1.634,0,0,1,.5-.346,1.518,1.518,0,0,1,.666-.149,1.288,1.288,0,0,1,.577.145,1.589,1.589,0,0,1,.473.372,2.233,2.233,0,0,1,.354.558Zm-4.607,2.486a5.209,5.209,0,0,0-.242-.6,2.211,2.211,0,0,0-.272-.443.852.852,0,0,0-.3-.246.413.413,0,0,0-.32-.019.421.421,0,0,0-.246.212.848.848,0,0,0-.089.372,2.232,2.232,0,0,0,.056.514,6.163,6.163,0,0,0,.179.629,6,6,0,0,0,.238.6,2.4,2.4,0,0,0,.268.443.923.923,0,0,0,.3.246.424.424,0,0,0,.324,0,.413.413,0,0,0,.246-.208.863.863,0,0,0,.086-.372,2.449,2.449,0,0,0-.052-.514,5.277,5.277,0,0,0-.175-.61Zm.744-.249a4.861,4.861,0,0,1,.208.874,2.259,2.259,0,0,1,0,.744,1.41,1.41,0,0,1-.275.6,1.343,1.343,0,0,1-1.247.42,1.4,1.4,0,0,1-.58-.309,2.281,2.281,0,0,1-.476-.6,4.283,4.283,0,0,1-.372-.822A4.465,4.465,0,0,1,80.8,94.2a2.278,2.278,0,0,1,0-.767,1.265,1.265,0,0,1,1.522-1.02,1.38,1.38,0,0,1,.58.309,2.185,2.185,0,0,1,.476.6,4.727,4.727,0,0,1,.387.841Zm-5,1.488a4.651,4.651,0,0,0-.182-.625,2.17,2.17,0,0,0-.223-.465.834.834,0,0,0-.272-.275.409.409,0,0,0-.316-.048.417.417,0,0,0-.268.182.826.826,0,0,0-.123.372,2.195,2.195,0,0,0,0,.517,6.023,6.023,0,0,0,.112.644,5.735,5.735,0,0,0,.182.621,2.044,2.044,0,0,0,.22.469.912.912,0,0,0,.272.275.438.438,0,0,0,.584-.134.863.863,0,0,0,.123-.372,2.176,2.176,0,0,0,0-.517,4.552,4.552,0,0,0-.093-.659Zm.781-.175a4.942,4.942,0,0,1,.123.889,2.322,2.322,0,0,1-.093.744,1.41,1.41,0,0,1-.335.569,1.351,1.351,0,0,1-1.28.294A1.388,1.388,0,0,1,77.4,97.6a2.315,2.315,0,0,1-.413-.64,4.767,4.767,0,0,1-.283-.852,4.535,4.535,0,0,1-.119-.889,2.233,2.233,0,0,1,.089-.744,1.325,1.325,0,0,1,.335-.566,1.206,1.206,0,0,1,.6-.316,1.187,1.187,0,0,1,.677.019,1.377,1.377,0,0,1,.551.372,2.367,2.367,0,0,1,.417.647,5.154,5.154,0,0,1,.294.837ZM72.469,98.9l1.488-2.545a3.3,3.3,0,0,0,.186-.372.8.8,0,0,0,.048-.409.621.621,0,0,0-.268-.454.863.863,0,0,0-.614-.108,2.329,2.329,0,0,0-.852.3l-.313-.607a2.7,2.7,0,0,1,.543-.246,3.175,3.175,0,0,1,.607-.138,1.712,1.712,0,0,1,1.2.2,1.2,1.2,0,0,1,.517.9,1.168,1.168,0,0,1,0,.342,1.882,1.882,0,0,1-.086.324,2.4,2.4,0,0,1-.13.3c-.052.1-.1.182-.156.26l-.927,1.414,1.7-.22.086.677Zm-8.361-.1.331-4.365,2.233.167-.056.714L65.187,95.2,65.1,96.295l1.295.1-.056.7-1.291-.1-.086,1.15,1.429.108-.056.714Zm-1.715-.335a1.373,1.373,0,0,1-.406.1,2.006,2.006,0,0,1-.528-.03,1.54,1.54,0,0,1-.614-.249,1.459,1.459,0,0,1-.45-.51,2.047,2.047,0,0,1-.227-.744,3.833,3.833,0,0,1,.35-1.965,2.032,2.032,0,0,1,.476-.633,1.4,1.4,0,0,1,.6-.316,1.585,1.585,0,0,1,.662-.026,1.909,1.909,0,0,1,.5.16,1.142,1.142,0,0,1,.35.234l-.372.625a.841.841,0,0,0-.208-.16.893.893,0,0,0-.309-.108.778.778,0,0,0-.722.257,2.054,2.054,0,0,0-.454,1.068,2.02,2.02,0,0,0,.06,1.157.77.77,0,0,0,.588.487.952.952,0,0,0,.324,0,.745.745,0,0,0,.249-.078Zm-5-.819-.744-2.906a1.359,1.359,0,0,1-.048-.2,1.139,1.139,0,0,0-.03-.175l-.022-.186h0a.872.872,0,0,1-.041.179c-.015.063-.03.112-.045.179s-.033.13-.052.2l-.7,2.441-.677-.19,1.2-4.212.677.19.718,2.832q.022.1.045.2a.882.882,0,0,0,.033.182c.011.056.019.123.026.182h0a1.488,1.488,0,0,1,.048-.182.834.834,0,0,1,.045-.186l.056-.2.674-2.367.674.193-1.194,4.212Zm-4.923-1.578,1.608-4.093.767.3-1.63,4.1Zm-1.15-1.816a1.466,1.466,0,0,1-.313.458,1.228,1.228,0,0,1-.432.272,1.291,1.291,0,0,1-.525.063,1.761,1.761,0,0,1-.592-.16,3.082,3.082,0,0,1-.525-.309,1.6,1.6,0,0,1-.372-.35l.558-.562a1.328,1.328,0,0,0,.257.275,1.652,1.652,0,0,0,.372.227.7.7,0,0,0,.487.06.476.476,0,0,0,.316-.283.446.446,0,0,0,.041-.2.461.461,0,0,0-.045-.2.949.949,0,0,0-.115-.193c-.045-.063-.1-.13-.153-.2a4.1,4.1,0,0,1-.253-.324,1.861,1.861,0,0,1-.2-.372,1.41,1.41,0,0,1-.078-.435,1.172,1.172,0,0,1,.112-.5,1.41,1.41,0,0,1,.309-.439,1.172,1.172,0,0,1,.417-.26,1.22,1.22,0,0,1,.5-.063,1.689,1.689,0,0,1,.554.149,2.233,2.233,0,0,1,.491.294,1.422,1.422,0,0,1,.305.324l-.514.525a1.586,1.586,0,0,0-.223-.246,1.22,1.22,0,0,0-.327-.216.6.6,0,0,0-.447-.045.487.487,0,0,0-.294.275.4.4,0,0,0-.037.2.573.573,0,0,0,.052.2.926.926,0,0,0,.115.2c.045.067.1.134.149.2s.16.2.246.324a1.943,1.943,0,0,1,.208.372,1.276,1.276,0,0,1,.086.435,1.22,1.22,0,0,1-.141.491ZM25.587,56.8c.886-3.208,1.861-6.7,2.638-9.589-1.552,2.716-3.833,6.731-5.876,10.374,1.221-.275,2.382-.566,3.237-.785M17.6,61.134C9.325,63.575,6.542,71.471,9.266,70.861c1.254-.283,2.943-1.072,5.489-5.09.532-.878,1.559-2.538,2.843-4.637M91.212,34.108a1.042,1.042,0,0,0-.372-.915,1.343,1.343,0,0,0-1.083-.13l-.216.048c-.089.022-.156.037-.2.052v2.266a.335.335,0,0,0,.238.227.96.96,0,0,0,.487,0,1.358,1.358,0,0,0,.83-.517A1.652,1.652,0,0,0,91.212,34.108Zm-.3-2.921a.9.9,0,0,0-.287-.744,1,1,0,0,0-.856-.119l-.212.048-.223.056v2.3l.223-.045a1.719,1.719,0,0,0,1.023-.532,1.455,1.455,0,0,0,.331-.96Zm1.369,1.593a1.116,1.116,0,0,1,.447.394,1.139,1.139,0,0,1,.171.651,1.734,1.734,0,0,1-.194.834,1.86,1.86,0,0,1-.558.625,3.773,3.773,0,0,1-.889.458,7.971,7.971,0,0,1-1.18.316l-3.152.629v-.342l.335-.1a1.514,1.514,0,0,0,.283-.119.536.536,0,0,0,.216-.212.644.644,0,0,0,.06-.29V31.257A.588.588,0,0,0,87.774,31a.309.309,0,0,0-.227-.138,1.287,1.287,0,0,0-.309-.033h-.309v-.32l3.293-.655a3.219,3.219,0,0,1,1.794,0,.912.912,0,0,1,.554.923,1.28,1.28,0,0,1-.127.573,1.615,1.615,0,0,1-.372.484,2.687,2.687,0,0,1-.5.372,4.934,4.934,0,0,1-.625.324v.082a3.133,3.133,0,0,1,.7,0,1.861,1.861,0,0,1,.64.164Zm4.052-.335a5.266,5.266,0,0,0-.48.287,2.377,2.377,0,0,0-.372.3,1.172,1.172,0,0,0-.253.372,1.184,1.184,0,0,0-.089.469.577.577,0,0,0,.153.461.439.439,0,0,0,.372.078.863.863,0,0,0,.372-.175,1.488,1.488,0,0,0,.272-.3Zm2.11,1.861a4.245,4.245,0,0,1-.443.242,2.348,2.348,0,0,1-.54.175,1.362,1.362,0,0,1-.767,0,.614.614,0,0,1-.339-.372h-.022a4.052,4.052,0,0,1-.283.309,1.976,1.976,0,0,1-.29.238,2.6,2.6,0,0,1-.372.22,2.486,2.486,0,0,1-.521.153,1.116,1.116,0,0,1-.848-.13.8.8,0,0,1-.354-.722,1.462,1.462,0,0,1,.078-.5,1.373,1.373,0,0,1,.22-.394,1.466,1.466,0,0,1,.3-.29,4.3,4.3,0,0,1,.372-.246c.257-.145.566-.305.923-.48a6.484,6.484,0,0,0,.793-.435v-.443a1.71,1.71,0,0,0-.019-.287.744.744,0,0,0-.074-.287.406.406,0,0,0-.19-.2.5.5,0,0,0-.339-.03.9.9,0,0,0-.316.119,1.548,1.548,0,0,0-.2.149,1.756,1.756,0,0,0,.074.253,1.061,1.061,0,0,1,.06.335.744.744,0,0,1-.037.19.525.525,0,0,1-.112.2,1.116,1.116,0,0,1-.22.179,1.262,1.262,0,0,1-.372.123.662.662,0,0,1-.543-.071.5.5,0,0,1-.186-.424.744.744,0,0,1,.19-.473,2.076,2.076,0,0,1,.454-.417,3.349,3.349,0,0,1,.621-.327,3.878,3.878,0,0,1,.651-.2,5.069,5.069,0,0,1,.763-.1,1.518,1.518,0,0,1,.621.082.819.819,0,0,1,.424.372,1.388,1.388,0,0,1,.156.722c0,.327,0,.718-.019,1.172s-.019.744-.019.889a.584.584,0,0,0,.06.3.279.279,0,0,0,.171.138.666.666,0,0,0,.227,0l.279-.048Zm5.745-1.023-2.009.4q-.372-.592-.681-.994c-.208-.268-.4-.517-.584-.744l-.257.272v.945a.532.532,0,0,0,.048.249.212.212,0,0,0,.171.112.822.822,0,0,0,.179.026,1.3,1.3,0,0,0,.208,0v.316l-2.657.528v-.324A2.079,2.079,0,0,0,98.825,34a1.117,1.117,0,0,0,.19-.078.409.409,0,0,0,.186-.186.644.644,0,0,0,.048-.272V28.626a.707.707,0,0,0-.06-.287.372.372,0,0,0-.182-.2.629.629,0,0,0-.242-.041,2.349,2.349,0,0,0-.294,0v-.32l2.125-.54.063.06v4.506c.212-.234.45-.5.714-.807s.476-.554.633-.744a.636.636,0,0,0,.156-.257.746.746,0,0,0,.019-.1c0-.052-.045-.086-.138-.1a2.117,2.117,0,0,0-.4,0v-.313l2.177-.461v.305a5.474,5.474,0,0,0-.655.372,5.012,5.012,0,0,0-.491.372c-.115.1-.231.2-.339.313s-.234.242-.372.4c.275.372.536.685.77.99s.484.625.744.964a.5.5,0,0,0,.327.208,1.4,1.4,0,0,0,.394,0Zm3.029-3.349a5.071,5.071,0,0,0-.026-.528,1.455,1.455,0,0,0-.089-.432.529.529,0,0,0-.2-.268.432.432,0,0,0-.32-.041.77.77,0,0,0-.536.435,2.583,2.583,0,0,0-.216,1.116Zm1.63,1.325a3.413,3.413,0,0,1-.372.54,3.035,3.035,0,0,1-.48.473,3.379,3.379,0,0,1-.577.372,2.977,2.977,0,0,1-.674.22,2.906,2.906,0,0,1-1.094.033,1.667,1.667,0,0,1-.744-.342,1.488,1.488,0,0,1-.447-.644,2.438,2.438,0,0,1-.149-.882,2.546,2.546,0,0,1,.16-.886,2.977,2.977,0,0,1,.461-.819,2.925,2.925,0,0,1,1.715-1.042,2.6,2.6,0,0,1,.982-.048,1.384,1.384,0,0,1,.64.283,1.172,1.172,0,0,1,.353.514,2.069,2.069,0,0,1,.112.688V30l-2.891.573a2.021,2.021,0,0,0,.335,1.3,1.053,1.053,0,0,0,1.075.253,1.488,1.488,0,0,0,.722-.372,2.768,2.768,0,0,0,.547-.677Zm4.685-3.412a1.057,1.057,0,0,1-.2.621.8.8,0,0,1-.528.372.744.744,0,0,1-.525-.056.439.439,0,0,1-.216-.428,1.046,1.046,0,0,1,.022-.242.752.752,0,0,1,.037-.164,1.068,1.068,0,0,0-.413.22,1.742,1.742,0,0,0-.372.42v2.393a.5.5,0,0,0,.048.242.246.246,0,0,0,.156.127.983.983,0,0,0,.305,0,2.3,2.3,0,0,0,.305-.022v.32l-2.865.569V31.9a.688.688,0,0,0,.216-.067,1.273,1.273,0,0,0,.186-.078.409.409,0,0,0,.186-.186.636.636,0,0,0,.052-.268v-2.53a.48.48,0,0,0-.074-.268.446.446,0,0,0-.175-.16.521.521,0,0,0-.193-.052,1.487,1.487,0,0,0-.257,0v-.32l2.047-.525.063.056v.625h.019a3.286,3.286,0,0,1,.621-.67,1.541,1.541,0,0,1,.688-.335.714.714,0,0,1,.636.123.744.744,0,0,1,.231.607Zm5.124-1.488a1.209,1.209,0,0,0-.372.22,1.116,1.116,0,0,0-.3.428q-.372.863-.744,1.835c-.26.651-.547,1.351-.863,2.106A7.482,7.482,0,0,1,115.849,32a3.984,3.984,0,0,1-.469.629,1.86,1.86,0,0,1-.406.335,1.3,1.3,0,0,1-.409.16.8.8,0,0,1-.655-.1.547.547,0,0,1-.253-.469.811.811,0,0,1,.03-.234.789.789,0,0,1,.327-.447.893.893,0,0,1,.324-.134.644.644,0,0,1,.458.082,1.994,1.994,0,0,1,.454.372,5.357,5.357,0,0,0,.35-.5,2.628,2.628,0,0,0,.305-.651q-.51-.982-.9-1.7c-.26-.48-.554-1.012-.882-1.6a.588.588,0,0,0-.287-.268.819.819,0,0,0-.372-.067v-.32l2.6-.521v.324a1.251,1.251,0,0,0-.335.13c-.127.063-.19.13-.19.194a.28.28,0,0,0,0,.074.358.358,0,0,0,.048.108c.1.182.234.439.413.744l.621,1.139c.175-.447.324-.826.447-1.15s.246-.633.372-.941A.956.956,0,0,0,117.5,27v-.086a.141.141,0,0,0-.074-.123.573.573,0,0,0-.175-.067,1.447,1.447,0,0,0-.208-.026h-.16V26.42l1.768-.354Zm-8.075,9.991h0s-1.057,1.444-1.641,1.187a13.988,13.988,0,0,1-1.775-1.068c-.923.834-1.816,1.615-2.315,2-.744.558-1.325-.521-1.325-.521l4.216-4.644c.071-.074,2.839,3.062,2.839,3.062Zm-5.21,9.1h0c.744-2.274.573-3.944-.372-3.721s-2.341,2.233-3.092,4.51-.558,3.941.372,3.721,2.359-2.225,3.1-4.491ZM68.368,48.586h0a9.526,9.526,0,0,1,5.6,2.188,10.144,10.144,0,0,1,2.329,3.1c2.114-3.6,3.487-9.191,3.632-14.14a11.538,11.538,0,0,1-.8.852,2.142,2.142,0,0,1-3.382-.234c3.137-3.349,4.387-8.559,2.233-8.06s-5.954,4.406-8.4,11.494a29.181,29.181,0,0,0-1.213,4.823Zm3.885,8.968h0A4.577,4.577,0,0,0,74.4,56.315a7.082,7.082,0,0,0-2.5-4,5.326,5.326,0,0,0-3.788-1.135c-.13,4.108,1.146,7.063,4.149,6.389ZM95.9,65.547a2.233,2.233,0,0,1-.495.253,3.543,3.543,0,0,1-.64.19,1.154,1.154,0,0,1-.886-.089.9.9,0,0,1-.3-.793V63.151l.711-.141v1.976c0,.313.16.443.476.372a2.16,2.16,0,0,0,.253-.071.744.744,0,0,0,.164-.078V62.849l.718-.141Zm-3.442-2.341-.614-.372-.618.61-.238-.179.592-.744a.413.413,0,0,1,.257-.167.264.264,0,0,1,.253.067l.592.487Zm-.287,3.822a.417.417,0,0,1-.1.268.424.424,0,0,1-.246.153.3.3,0,0,1-.253-.052.275.275,0,0,1-.1-.227.4.4,0,0,1,.1-.268.424.424,0,0,1,.253-.149.272.272,0,0,1,.246.052.26.26,0,0,1,.108.242Zm.167-2.441a.655.655,0,0,0-.145-.484.413.413,0,0,0-.4-.093.718.718,0,0,0-.454.309,1.191,1.191,0,0,0-.19.677Zm.7,0v.127a.816.816,0,0,1,0,.134l-1.823.625a.566.566,0,0,0,.26.443.744.744,0,0,0,.521.06,2.047,2.047,0,0,0,.428-.138,1.563,1.563,0,0,0,.372-.208l.2.528a2.125,2.125,0,0,1-.454.249,3.2,3.2,0,0,1-.592.179,1.488,1.488,0,0,1-.618,0,.956.956,0,0,1-.447-.234,1.172,1.172,0,0,1-.272-.447,1.861,1.861,0,0,1-.093-.618,2.3,2.3,0,0,1,.089-.651,1.861,1.861,0,0,1,.26-.547,1.6,1.6,0,0,1,.413-.409,1.533,1.533,0,0,1,.551-.223,1.3,1.3,0,0,1,.521,0,.815.815,0,0,1,.372.2.882.882,0,0,1,.234.372,1.612,1.612,0,0,1,.067.566ZM89.2,67.058v-3.01l.722-.141v3.01ZM89.973,63a.469.469,0,0,1-.123.316.484.484,0,0,1-.287.179.331.331,0,0,1-.294-.063.327.327,0,0,1-.119-.268.476.476,0,0,1,.119-.313.5.5,0,0,1,.294-.179.331.331,0,0,1,.287.063.309.309,0,0,1,.127.275Zm-2.136,4.35V65.625l-1.168.231v1.727l-.744.149V63.69l.744-.145v1.671l1.168-.234V63.311l.744-.145v4.041Zm-4.372-1.589a.407.407,0,0,0-.145,0,1.043,1.043,0,0,0-.2.022.77.77,0,0,0-.484.313,1.2,1.2,0,0,0-.19.744.9.9,0,0,0,.179.633.488.488,0,0,0,.473.127,1.23,1.23,0,0,0,.208-.067.707.707,0,0,0,.164-.093ZM84.179,68a1.793,1.793,0,0,1-.089.58,1.291,1.291,0,0,1-.253.454,1.392,1.392,0,0,1-.394.324,1.783,1.783,0,0,1-.517.186,2.459,2.459,0,0,1-.614.056,1.789,1.789,0,0,1-.465-.074l.208-.64a1.4,1.4,0,0,0,.35.063,1.916,1.916,0,0,0,.45-.037.744.744,0,0,0,.465-.257.837.837,0,0,0,.145-.51v-.186a1.117,1.117,0,0,1-.242.127,1.534,1.534,0,0,1-.283.082,1.154,1.154,0,0,1-.491,0,.822.822,0,0,1-.372-.208,1.072,1.072,0,0,1-.249-.4,1.731,1.731,0,0,1-.089-.588,2.21,2.21,0,0,1,.1-.688,1.563,1.563,0,0,1,.744-.912,2.14,2.14,0,0,1,.6-.212,2.3,2.3,0,0,1,.54-.037,1.432,1.432,0,0,1,.439.067Zm-3.721.8V66.809a.413.413,0,0,0-.127-.331.443.443,0,0,0-.372-.052,1.374,1.374,0,0,0-.242.067,1.254,1.254,0,0,0-.186.089v2.393l-.711.141V66.258a3.51,3.51,0,0,1,.5-.253,3.022,3.022,0,0,1,.625-.186,1.25,1.25,0,0,1,.934.074.785.785,0,0,1,.3.692v2.061Zm-2.542-2.136a.171.171,0,0,1,.026.026,1.083,1.083,0,0,1,.249.447,2.039,2.039,0,0,1,.086.607,2.415,2.415,0,0,1-.086.64,1.905,1.905,0,0,1-.249.551,1.682,1.682,0,0,1-.4.409,1.433,1.433,0,0,1-.547.227,1.09,1.09,0,0,1-.551,0,.934.934,0,0,1-.4-.246,1.187,1.187,0,0,1-.249-.454,2.062,2.062,0,0,1-.082-.607,2.4,2.4,0,0,1,.082-.64,1.883,1.883,0,0,1,.249-.547,1.682,1.682,0,0,1,.4-.409,1.451,1.451,0,0,1,.551-.227,1.116,1.116,0,0,1,.543,0l.179-.372a.7.7,0,0,1,.182-.119.782.782,0,0,1,.268-.074.476.476,0,0,1,.227.019c.06.026.089.052.093.082Zm-.372,1.217a1.351,1.351,0,0,0-.141-.685.372.372,0,0,0-.424-.171.6.6,0,0,0-.428.342,1.678,1.678,0,0,0-.141.744,1.3,1.3,0,0,0,.141.677.372.372,0,0,0,.428.167.577.577,0,0,0,.424-.335,1.66,1.66,0,0,0,.164-.722Zm-2.378-.607V69.7a2.43,2.43,0,0,1-.495.253,3.635,3.635,0,0,1-.64.19,1.154,1.154,0,0,1-.886-.089.9.9,0,0,1-.3-.793V67.3l.711-.141v1.976c0,.313.16.443.476.372a2.086,2.086,0,0,0,.249-.071.792.792,0,0,0,.167-.078V66.98l.447-.089.145-.3a.89.89,0,0,1,.186-.119.781.781,0,0,1,.268-.074.428.428,0,0,1,.227.022c.06.022.089.048.093.078Zm-3.6,3.33V68.632a.4.4,0,0,0-.134-.346.461.461,0,0,0-.372-.048.9.9,0,0,0-.22.074.867.867,0,0,0-.19.119v2.348l-.711.141V66.537l.711-.141v1.466a1.462,1.462,0,0,1,.283-.156,1.224,1.224,0,0,1,.313-.1.949.949,0,0,1,.778.1.815.815,0,0,1,.275.7v2.043Zm-2.914-2.832v3.382l-.744.149V67.914l-.8.16v-.662l2.341-.465v.662Zm-3.773,4.116V69.9a.4.4,0,0,0-.127-.331.432.432,0,0,0-.372-.052,1.288,1.288,0,0,0-.242.067,1.094,1.094,0,0,0-.186.089v2.393l-.692.127V69.332a3.671,3.671,0,0,1,.5-.253,3.13,3.13,0,0,1,.629-.186,1.239,1.239,0,0,1,.93.074.778.778,0,0,1,.3.692v2.061Zm-2.754-2.627-.618-.372-.618.61-.238-.179.592-.726a.413.413,0,0,1,.257-.167.26.26,0,0,1,.253.067l.592.487ZM62,70.634a.67.67,0,0,0-.141-.484.42.42,0,0,0-.4-.093.744.744,0,0,0-.454.309,1.191,1.191,0,0,0-.19.677Zm.7,0v.127a.814.814,0,0,1,0,.134l-1.823.625a.577.577,0,0,0,.26.443.744.744,0,0,0,.525.06,2.2,2.2,0,0,0,.428-.138,1.738,1.738,0,0,0,.372-.208l.2.528a2.035,2.035,0,0,1-.454.249,3.033,3.033,0,0,1-.592.179,1.507,1.507,0,0,1-.618,0,.927.927,0,0,1-.443-.234,1.116,1.116,0,0,1-.275-.447,1.861,1.861,0,0,1-.093-.618,2.3,2.3,0,0,1,.1-.633,1.86,1.86,0,0,1,.264-.547,1.585,1.585,0,0,1,.409-.409,1.525,1.525,0,0,1,.554-.223,1.231,1.231,0,0,1,.521,0,.8.8,0,0,1,.372.2.919.919,0,0,1,.234.372,1.715,1.715,0,0,1,.074.532ZM58.976,73.1,57.618,70.98a1.214,1.214,0,0,1-.089-.149c-.03-.048-.052-.1-.071-.134s-.041-.1-.063-.149h0a1.314,1.314,0,0,0,0,.167v2.7l-.636.127V69.5l.636-.127,1.328,2.073.086.149c.026.052.052.1.074.138s.048.093.071.141h0V71.7a1.262,1.262,0,0,1,0-.175v-2.46l.636-.127v4.045Zm-4.648.919v-2a.372.372,0,0,0-.127-.32.4.4,0,0,0-.339-.052.744.744,0,0,0-.424.234V74.2l-.718.145V72.3a.316.316,0,0,0-.134-.287.469.469,0,0,0-.372-.045,1.15,1.15,0,0,0-.394.153v2.393l-.711.141V71.817a3.493,3.493,0,0,1,.487-.253,3.2,3.2,0,0,1,.573-.175,1.414,1.414,0,0,1,.566-.019.926.926,0,0,1,.35.145,1.727,1.727,0,0,1,.372-.287,1.82,1.82,0,0,1,.569-.208.871.871,0,0,1,.744.119.826.826,0,0,1,.3.677V73.9ZM49.29,71.75l-.64-.607c.033-.123.138-.2.309-.231a.327.327,0,0,1,.372.1l.316.67Zm.521,1.715-.372.1a1.343,1.343,0,0,0-.313.138.718.718,0,0,0-.22.2.5.5,0,0,0-.082.283.309.309,0,0,0,.156.3.614.614,0,0,0,.432.033,1.948,1.948,0,0,0,.231-.063.7.7,0,0,0,.175-.082Zm.677,1.165a1.522,1.522,0,0,1-.2.123,2.306,2.306,0,0,1-.253.119c-.1.041-.194.074-.3.108a2.181,2.181,0,0,1-.316.078A1.343,1.343,0,0,1,48.468,75a.7.7,0,0,1-.316-.655.953.953,0,0,1,.138-.525,1.276,1.276,0,0,1,.372-.372,2.541,2.541,0,0,1,.532-.268,5.258,5.258,0,0,1,.621-.19v-.156a.309.309,0,0,0-.141-.305.633.633,0,0,0-.391,0,2.154,2.154,0,0,0-.424.138,2.715,2.715,0,0,0-.372.2l-.182-.476a3.721,3.721,0,0,1,.461-.238,2.81,2.81,0,0,1,.592-.186,1.116,1.116,0,0,1,.837.082.841.841,0,0,1,.294.763Zm-4.6,1.031V71.616l.744-.145v3.382l1.183-.234v.659Zm-2.46-1.913a.417.417,0,0,0-.145,0,1.042,1.042,0,0,0-.2.022.744.744,0,0,0-.484.313,1.2,1.2,0,0,0-.19.744.9.9,0,0,0,.179.633.487.487,0,0,0,.473.127,1.228,1.228,0,0,0,.208-.067.707.707,0,0,0,.164-.093ZM44.14,76a1.786,1.786,0,0,1-.089.577,1.291,1.291,0,0,1-.253.454,1.392,1.392,0,0,1-.394.324,1.782,1.782,0,0,1-.517.186,2.459,2.459,0,0,1-.614.056,1.764,1.764,0,0,1-.465-.074l.208-.64a1.4,1.4,0,0,0,.35.063,1.936,1.936,0,0,0,.45-.037.744.744,0,0,0,.465-.257.837.837,0,0,0,.145-.51v-.186a1.228,1.228,0,0,1-.242.127,1.534,1.534,0,0,1-.283.082,1.169,1.169,0,0,1-.495,0,.826.826,0,0,1-.372-.208,1,1,0,0,1-.249-.4,1.723,1.723,0,0,1-.093-.588,2.21,2.21,0,0,1,.1-.688,1.619,1.619,0,0,1,.29-.536,1.511,1.511,0,0,1,.458-.372,2.139,2.139,0,0,1,.6-.212,2.3,2.3,0,0,1,.562-.048,1.455,1.455,0,0,1,.439.067Zm-3.721.744V74.761a.413.413,0,0,0-.127-.331.443.443,0,0,0-.372-.052,1.288,1.288,0,0,0-.242.067,1.255,1.255,0,0,0-.186.089v2.393l-.711.141V74.21a3.669,3.669,0,0,1,.5-.253,3.129,3.129,0,0,1,.629-.186,1.232,1.232,0,0,1,.934.078.774.774,0,0,1,.3.688V76.6Zm-2.542-2.136.026.022a1.22,1.22,0,0,1,.249.45,2.043,2.043,0,0,1,.082.607,2.416,2.416,0,0,1-.082.64,2.009,2.009,0,0,1-.249.551,1.682,1.682,0,0,1-.4.409,1.432,1.432,0,0,1-.547.227,1.094,1.094,0,0,1-.551,0,.9.9,0,0,1-.4-.249,1.139,1.139,0,0,1-.249-.454,2.058,2.058,0,0,1-.086-.607,2.4,2.4,0,0,1,.086-.64A1.79,1.79,0,0,1,36,75.017a1.544,1.544,0,0,1,.4-.406,1.433,1.433,0,0,1,.551-.231,1.116,1.116,0,0,1,.543,0l.175-.372a.8.8,0,0,1,.186-.119.782.782,0,0,1,.268-.074.476.476,0,0,1,.227,0c.06.026.089.052.093.082ZM37.3,77.957a.4.4,0,0,1-.1.268.424.424,0,0,1-.246.153.313.313,0,0,1-.253-.052.287.287,0,0,1-.1-.231.413.413,0,0,1,.1-.264.465.465,0,0,1,.253-.153.286.286,0,0,1,.246.056.26.26,0,0,1,.115.2Zm.216-2.121a1.351,1.351,0,0,0-.141-.685.372.372,0,0,0-.424-.171.592.592,0,0,0-.428.342,1.678,1.678,0,0,0-.141.744,1.3,1.3,0,0,0,.141.677.372.372,0,0,0,.428.167.584.584,0,0,0,.424-.335,1.66,1.66,0,0,0,.153-.759Zm-2.389-.569V77.7a2.3,2.3,0,0,1-.491.253,3.721,3.721,0,0,1-.64.19,1.15,1.15,0,0,1-.882-.108.9.9,0,0,1-.3-.793V75.282l.711-.141v1.976c0,.313.16.443.476.372a1.566,1.566,0,0,0,.249-.071.9.9,0,0,0,.167-.078V74.954l.447-.089.145-.3a1.071,1.071,0,0,1,.186-.119.781.781,0,0,1,.268-.074.428.428,0,0,1,.227.022c.06.022.089.048.093.078ZM30.413,78.75V74.686l.744-.145v3.382l1.18-.234v.659Zm-1.589.3a.909.909,0,0,1-.182.093,1.49,1.49,0,0,1-.249.074.636.636,0,0,1-.607-.115.93.93,0,0,1-.2-.674V76.893l-.372.071v-.569l.372-.071V75.65l.7-.372v.889l.532-.1v.569l-.532.1v1.488c0,.123.03.2.093.238a.339.339,0,0,0,.231.03.529.529,0,0,0,.115-.041.708.708,0,0,0,.093-.048Zm-2.6-2.649-.614-.372-.618.607-.242-.179.592-.726a.432.432,0,0,1,.257-.167.268.268,0,0,1,.253.067l.592.487Zm.026-.592.316-.8a.5.5,0,0,1,.372-.238c.171-.037.272,0,.309.108l-.64.86ZM26.1,78.143c-.13.033-.257.067-.372.1a1.307,1.307,0,0,0-.316.138.7.7,0,0,0-.216.2.469.469,0,0,0-.082.283.313.313,0,0,0,.153.3.618.618,0,0,0,.432.033,1.776,1.776,0,0,0,.231-.063.644.644,0,0,0,.175-.082Zm.692,1.176a1.458,1.458,0,0,1-.193.123,2.77,2.77,0,0,1-.257.119c-.093.041-.193.074-.294.108a2.308,2.308,0,0,1-.316.078,1.355,1.355,0,0,1-.96-.063.7.7,0,0,1-.316-.655A.96.96,0,0,1,24.6,78.5a1.276,1.276,0,0,1,.372-.372,2.422,2.422,0,0,1,.528-.268,5.482,5.482,0,0,1,.621-.19v-.156c0-.156-.045-.257-.141-.3a.6.6,0,0,0-.391-.022,2.155,2.155,0,0,0-.424.138,2.976,2.976,0,0,0-.372.2l-.182-.476a3.984,3.984,0,0,1,.461-.238,2.809,2.809,0,0,1,.592-.186,1.116,1.116,0,0,1,.841.082.848.848,0,0,1,.29.763Zm-3.442.822V78.177a.4.4,0,0,0-.134-.346.461.461,0,0,0-.372-.048.852.852,0,0,0-.22.074.9.9,0,0,0-.193.119v2.348l-.711.141V76.082l.711-.141V77.4a1.585,1.585,0,0,1,.283-.156,1.25,1.25,0,0,1,.316-.1.949.949,0,0,1,.778.1.815.815,0,0,1,.275.7V80Zm-2.136.287a1.488,1.488,0,0,1-.346.223,1.835,1.835,0,0,1-.476.156,1.3,1.3,0,0,1-.588,0,1.031,1.031,0,0,1-.48-.294A1.489,1.489,0,0,1,19,79.929a2.977,2.977,0,0,1-.119-.9A3.509,3.509,0,0,1,19,78.087a2.381,2.381,0,0,1,.324-.714,1.749,1.749,0,0,1,.48-.484,1.622,1.622,0,0,1,.588-.246,1.592,1.592,0,0,1,.473-.03.878.878,0,0,1,.35.086l-.231.674a.592.592,0,0,0-.212-.067.77.77,0,0,0-.29,0,.9.9,0,0,0-.618.465,2.147,2.147,0,0,0-.234,1.09,1.637,1.637,0,0,0,.234.994.573.573,0,0,0,.6.227.964.964,0,0,0,.29-.1.782.782,0,0,0,.212-.153Zm-3.725-6.173L97.2,58.176a1.667,1.667,0,0,1,2.095,1.671v2.076l3.721-.744a3.074,3.074,0,0,1,2.363-2.188,2.032,2.032,0,0,1,2.482,1.983,3.306,3.306,0,0,1-2.482,2.977,1.892,1.892,0,0,1-2.363-1.232l-3.721.744v2.073A2.709,2.709,0,0,1,97.2,68.055L17.489,84.142a1.663,1.663,0,0,1-2.095-1.671V80.394l-3.721.744A3.066,3.066,0,0,1,9.3,83.353a2.032,2.032,0,0,1-2.482-1.983A3.306,3.306,0,0,1,9.3,78.393a1.885,1.885,0,0,1,2.359,1.235l3.721-.744V76.811a2.7,2.7,0,0,1,2.106-2.556ZM8.615,49.945C5.247,52.408,2.977,55.4,2.568,59.166c-.554,5.09,4.06,4.51,7.372-.071C12.429,55.668,11.279,52.706,8.615,49.945ZM51.27,35.968a4.467,4.467,0,0,0,3.487,4.071,8.307,8.307,0,0,1,3.907,2.582C57.945,37.751,55.337,35.752,51.27,35.968ZM31.1,29.973l3.129-.052A3.378,3.378,0,0,0,36.177,32.9a4.9,4.9,0,0,1-3.3-.5C32.024,31.979,31.663,31.019,31.1,29.973Zm-.071-.912h3.3a4.7,4.7,0,0,1,2.556-2.467,5.538,5.538,0,0,0-3.609.16A6.11,6.11,0,0,0,31.034,29.062ZM35.6,30.23l3.107.372a3.347,3.347,0,0,0,1.514,3.2,4.8,4.8,0,0,1-3.2-.949C36.24,32.348,36.013,31.343,35.6,30.23Zm.056-.912,3.271.45A4.715,4.715,0,0,1,41.8,27.678a5.651,5.651,0,0,0-3.595-.339A6.048,6.048,0,0,0,35.66,29.319Zm3.918,1.816,3.051.685a3.349,3.349,0,0,0,1.194,3.33,4.743,4.743,0,0,1-3.092-1.258C40,33.3,39.872,32.284,39.578,31.134Zm.145-.9s3.074.744,3.211.774A4.685,4.685,0,0,1,46,29.211a5.67,5.67,0,0,0-3.546-.692A6,6,0,0,0,39.723,30.234Zm4.011,2.233,3.007.874a3.352,3.352,0,0,0,.979,3.4,4.8,4.8,0,0,1-3-1.451c-.7-.647-.759-1.671-.982-2.835Zm.2-.889,3.155.975a4.67,4.67,0,0,1,3.17-1.6,5.635,5.635,0,0,0-3.494-.915,5.744,5.744,0,0,0-2.832,1.529Zm3.836,2.884,2.858,1.261a3.344,3.344,0,0,0,.51,3.5,4.733,4.733,0,0,1-2.78-1.861c-.6-.707-.525-1.73-.588-2.914Zm.32-.856,3,1.373a4.662,4.662,0,0,1,3.349-1.154,5.746,5.746,0,0,0-3.349-1.384,6.128,6.128,0,0,0-3,1.154ZM29.2,42.048c-7.442.7-14.665,3.163-18.665,6.553,4.045,3.721,3.58,9.675-1.3,13.4C5.143,65.112.395,63.958.026,58.369-.294,53.5,2.411,50.142,5.7,47.623c-4.447-4.2-5.358-8.8,1.488-13.441,4.945-3.349,12.979-4.934,19.722-5.444a6.352,6.352,0,0,1,5.351-2.6l-2.7,3.211,3.022,3.487a5.931,5.931,0,0,1-5.533-2.556c-7.6.744-14.434,2.56-19.305,6.929-3.263,2.925-2.43,6.043.514,8.979,4.67-2.776,12.071-4.354,21.493-5.046l.294-.484,4.395-.986-.435,1.574a8.847,8.847,0,0,1,5.6,2.475c3.6,4.837-1.745,10.62-10.2,14.185-.339,1.228-.6,2.155-.714,2.6-.249.845-.655,2.545-.372,2.709s1.154-.554,1.738-1.328c.886-1.116,4.186-5.139,4.971-6.452l2.929-.659L36.2,61.1c2.635-5.69,5.143-7.092,6.013-7.286,1.448-.327,2.761.234,1.954,3.241-.249.967-.42,1.593-.9,3.275-.149.558-.42,1.693-.238,1.808s.54-.372.912-.889c.327-.42,1.861-2.657,3.215-4.7l3-10.791,2.929-.655L49.476,58.124c2.6-5.686,5.124-7.089,6.013-7.286,1.425-.32,2.769.372,2.039,3.007-.287.979-.525,1.831-.986,3.509-.164.566-.417,1.689-.234,1.8s.536-.372.908-.886c.592-.744,4.99-7.349,5.511-8.224v-.026a22.874,22.874,0,0,1,1.794-6.7c3.9-9.3,10.084-12.834,13.251-13.549,2.642-.592,4.008,1.061,4.235,3.371a1.961,1.961,0,0,1,1.559,1.608c1.626,7.9-.7,17.59-6.214,22.394a2.9,2.9,0,0,1,.4,2.795c-.681,1.835-2.932.294-2.932.294a2.891,2.891,0,0,0-.156-1.288,12.027,12.027,0,0,1-2.575.9c-4.506,1.012-8.968-1.63-9.388-7.55-1.362,2.181-4.774,7.6-5.757,9.05-1.254,1.861-2.192,2.556-2.951,2.728-1.224.272-1.961-.495-1.354-2.657.447-1.559.744-2.761,1.247-4.5.458-1.6.495-2.467-.134-2.326-1.057.238-4.964,5.98-6.374,10.97l-2.929.655L45.956,60.8c-.971,1.533-1.861,2.906-2.27,3.531-1.273,1.883-2.192,2.556-2.951,2.728-1.224.272-1.98-.491-1.354-2.657.447-1.559.744-2.754,1.247-4.5.439-1.6.5-2.467-.134-2.326-1.075.242-4.983,5.984-6.393,10.974l.026-.063-.026.063-2.929.655,2.385-8.559c-1.459,1.972-3.256,4.383-4.276,5.887-1.861,2.817-3.23,3.822-4.424,4.093-1.835.413-2.977-.744-2.035-3.982.212-.744,1.008-3.587,1.991-7.137l-4.06.912c-1.116,1.946-2.021,3.609-2.6,4.674C15.7,69.733,13.567,73.1,9.456,74.05,2.5,75.591,3.572,62.142,19.35,58.287,22.9,52.442,27.369,45.063,29.2,42.048Zm.647,14.241c3.241-1.823,6.27-4.034,7.572-8.186,1.09-3.464-.919-5.325-3.669-5.954-.96,3.461-2.713,9.816-3.9,14.125Zm91.42-.186A52.869,52.869,0,0,1,26.383,84.789l2.884-.588a50.235,50.235,0,0,0,89.176-25.94l.58-1.939ZM68.513,0a52.9,52.9,0,0,1,44.981,25.091l-2.765.562A50.2,50.2,0,0,0,33.01,17.344a50.7,50.7,0,0,0-7.5,9.556l-3.442.7A52.914,52.914,0,0,1,68.513,0Zm-9.18,10.654a2.11,2.11,0,1,1-2.11,2.11,2.11,2.11,0,0,1,2.11-2.11ZM68.216,8.9a2.9,2.9,0,1,1-2.9,2.9,2.9,2.9,0,0,1,2.9-2.9ZM52.784,13.482a1.317,1.317,0,1,1-.934.384,1.317,1.317,0,0,1,.934-.384ZM77.1,10.654a2.106,2.106,0,1,0,1.493.617,2.11,2.11,0,0,0-1.493-.617Zm6.549,2.828a1.317,1.317,0,1,0,.934.384,1.317,1.317,0,0,0-.934-.384Zm4.562,3a.525.525,0,1,0,.375.154.528.528,0,0,0-.375-.154Zm-39.994,0a.525.525,0,1,1-.372.155.528.528,0,0,1,.372-.155Zm82.765,13.251c-.525.871-8.22,13.024-8.8,13.768-.372.5-.726,1.012-.908.878s.093-1.243.242-1.8c.484-1.682.655-2.3.908-3.267a4.715,4.715,0,0,0,.19-2.2c-.212-1.146-1.154-1.347-2.155-1.116-.863.194-3.349,1.574-5.954,7.148l1.727-6.114h-.052l.019-.071-2.928.659-1.116,4.034c-1.381,2.073-2.932,4.365-3.267,4.793-.372.517-.722,1.02-.927.889s.089-1.247.253-1.808c.461-1.682,2.006-7.2,2.006-7.2l-2.943.681s-.253.953-.633,2.3A2.383,2.383,0,0,0,104.12,39.7c-1.541.346-3.479,2.035-5.15,6.1-1.083,1.608-2.08,3.074-2.329,3.4-.391.517-.744,1.023-.93.893s.089-1.25.257-1.812c.458-1.678,2-7.2,2-7.2l-2.943.681s-.372,1.392-.878,3.2c-.677,2.177-3.07,6.177-4.093,6.411s-.781-1.053-.614-1.615c.458-1.682,2-7.2,2-7.2l-2.943.681s-2.158,7.814-2.6,9.362c-.618,2.184.216,4.093,2.069,3.665,1.206-.272,3.062-2.754,4.555-5.384-.2.685-.372,1.209-.424,1.488-.621,2.166.134,2.929,1.354,2.657.778-.175,1.682-.845,2.951-2.728.313-.465.878-1.34,1.548-2.389-.1,2.5,1.15,3.844,2.977,3.438a5.892,5.892,0,0,0,3.237-2.832c-.193,1.488.506,1.991,1.544,1.756.778-.175,1.7-.848,2.951-2.724.428-.64,1.336-2.061,2.337-3.632l-1.529,5.474,2.925-.644h0l.026-.063-.026.063h0v0c.037-.138.078-.272.119-.409,1.518-4.867,5.247-10.267,6.289-10.5a.32.32,0,0,1,.428.246,5.5,5.5,0,0,1-.313,2.021c-.231.8-.417,1.488-.592,2.132h0v.03c-.216.785-.417,1.529-.666,2.382-.629,2.158.123,2.921,1.343,2.653.744-.167,1.682-.834,2.951-2.709,1.172-1.73,5.154-8.235,5.537-8.9C131.005,31.581,131.262,29.285,130.983,29.735ZM89.459,90.795a.927.927,0,1,1-.659.271A.93.93,0,0,1,89.459,90.795Z" transform="translate(0)"/></g></g></g></svg>