<svg xmlns="http://www.w3.org/2000/svg" width="112.566" height="20.546" viewBox="0 0 112.566 20.546"><defs><style>.a{fill:#581008;}</style></defs><path class="a" d="M585.484,227.17a4.679,4.679,0,0,1,1.158,3,4.93,4.93,0,0,1-1.431,3.6,4.708,4.708,0,0,1-3.451,1.425h-8.042a.858.858,0,0,1-.858-.855V220a.858.858,0,0,1,.858-.858h8.033a4.831,4.831,0,0,1,3.2,1.2,4.741,4.741,0,0,1,1.692,3.7A4.69,4.69,0,0,1,585.484,227.17Zm-8.159-3.571v2.428H580.9a1.08,1.08,0,0,0,.81-.357,1.251,1.251,0,0,0,0-1.713,1.08,1.08,0,0,0-.81-.357Zm3.574,7.148a1.072,1.072,0,0,0,.81-.36,1.245,1.245,0,0,0,0-1.707,1.068,1.068,0,0,0-.81-.357h-3.574v2.425Z" transform="translate(-474.078 -214.681)"/><path class="a" d="M476.166,204.877l-3.823,13.041-2.506-8.573a.855.855,0,0,0-.822-.618h-3.5a.858.858,0,0,0-.822.618L462.87,215.6l2.377,8.237,2.016-6.9,2.127,7.277a.852.852,0,0,0,.822.615h4.261a.852.852,0,0,0,.822-.615l5.836-19.93h-4.144A.855.855,0,0,0,476.166,204.877Z" transform="translate(-397.092 -204.28)"/><path class="a" d="M257.385,221.5a8.258,8.258,0,0,0-5.851-2.356h-7.016a.858.858,0,0,0-.858.858v14.367a.858.858,0,0,0,.858.855h7.016a8.261,8.261,0,0,0,5.851-2.353A8.042,8.042,0,0,0,257.385,221.5Zm-5.683,9.26h-3.439v-7.16h3.445a3.577,3.577,0,0,1,0,7.148Z" transform="translate(-243.66 -214.687)"/><path class="a" d="M301.341,235.181H297.2l4.516-15.462a.861.861,0,0,1,.825-.618h5.6a.858.858,0,0,1,.822.618l4.519,15.462h-4.135a.858.858,0,0,1-.825-.615l-.51-1.743h-3.994l1.125-3.85a.858.858,0,0,1,.822-.618h.738l-1.362-4.783-3.172,10.994A.861.861,0,0,1,301.341,235.181Z" transform="translate(-281.134 -214.653)"/><path class="a" d="M417.15,235.181H413l4.516-15.462a.861.861,0,0,1,.825-.618h5.6a.855.855,0,0,1,.822.618l4.519,15.462h-4.129a.852.852,0,0,1-.822-.615l-.513-1.743h-3.994l1.125-3.85a.861.861,0,0,1,.825-.618h.738l-1.365-4.783-3.172,10.994A.861.861,0,0,1,417.15,235.181Z" transform="translate(-362.187 -214.653)"/><path class="a" d="M535.655,223.578l1.317-4.468H524.588a.858.858,0,0,0-.858.858v14.367a.858.858,0,0,0,.858.855h12.384v-4.468h-8.66v-1.341h3.031l1.281-4.465h-4.312v-1.338Z" transform="translate(-439.69 -214.66)"/><path class="a" d="M366.937,228.655V220a.858.858,0,0,1,.858-.858h2.881a.855.855,0,0,1,.843.858v15.222h-5.851a.861.861,0,0,1-.759-.453l-4.876-9.173v8.771a.858.858,0,0,1-.858.855H355.45V220a.858.858,0,0,1,.858-.858h5.008a.861.861,0,0,1,.756.453Z" transform="translate(-321.905 -214.681)"/></svg>