<svg xmlns="http://www.w3.org/2000/svg" xmlns:xlink="http://www.w3.org/1999/xlink" width="85" height="85" viewBox="0 0 85 85"><defs><style>.a,.c{fill:#581008;}.a{stroke:#707070;}.b{clip-path:url(#a);}.c{fill-rule:evenodd;}</style><clipPath id="a"><rect class="a" width="85" height="85" transform="translate(51 61)"/></clipPath></defs><g class="b" transform="translate(-51 -61)"><g transform="translate(51 69.284)"><g transform="translate(0)"><path class="c" d="M30.842,59.349a.608.608,0,1,1-.608.608.608.608,0,0,1,.608-.608m25.968.939a.924.924,0,0,0-.311-.4.4.4,0,0,0-.4-.029.382.382,0,0,0-.151.114.392.392,0,0,0-.08.158.552.552,0,0,0-.015.18.62.62,0,0,0,.051.182.467.467,0,0,0,.277.275.528.528,0,0,0,.382-.034.936.936,0,0,0,.175-.109,1.2,1.2,0,0,0,.148-.129c-.012-.034-.022-.071-.036-.107a1.047,1.047,0,0,0-.039-.1Zm.462-.2a1.766,1.766,0,0,1,.165.654,1.714,1.714,0,0,1-.08.63,2.031,2.031,0,0,1-.289.569,2.247,2.247,0,0,1-.465.472l-.3-.36a1.768,1.768,0,0,0,.486-.552,1.282,1.282,0,0,0,.158-.608,1.078,1.078,0,0,1-.144.124,1.047,1.047,0,0,1-.168.1.973.973,0,0,1-.713.073.817.817,0,0,1-.486-.467,1.01,1.01,0,0,1-.085-.362.9.9,0,0,1,.054-.353.883.883,0,0,1,.19-.306,1.068,1.068,0,0,1,.326-.226.992.992,0,0,1,.435-.1.842.842,0,0,1,.377.095,1.039,1.039,0,0,1,.309.243,1.46,1.46,0,0,1,.231.365Zm-3.011,1.625a3.405,3.405,0,0,0-.158-.394,1.445,1.445,0,0,0-.178-.289.557.557,0,0,0-.195-.161.27.27,0,0,0-.209-.012.275.275,0,0,0-.161.139.555.555,0,0,0-.058.243,1.459,1.459,0,0,0,.036.336,4.029,4.029,0,0,0,.117.411,3.921,3.921,0,0,0,.156.394,1.566,1.566,0,0,0,.175.289.6.6,0,0,0,.195.161.277.277,0,0,0,.212,0,.27.27,0,0,0,.161-.136.564.564,0,0,0,.056-.243,1.6,1.6,0,0,0-.034-.336,3.451,3.451,0,0,0-.114-.4Zm.486-.163a3.177,3.177,0,0,1,.136.572,1.477,1.477,0,0,1,0,.486A.922.922,0,0,1,54.7,63a.878.878,0,0,1-.815.275.915.915,0,0,1-.379-.2,1.491,1.491,0,0,1-.311-.389,2.8,2.8,0,0,1-.243-.538,2.919,2.919,0,0,1-.136-.569,1.489,1.489,0,0,1,0-.5.827.827,0,0,1,.995-.666.9.9,0,0,1,.379.2A1.428,1.428,0,0,1,54.5,61a3.09,3.09,0,0,1,.253.55Zm-3.267.973a3.041,3.041,0,0,0-.119-.409,1.418,1.418,0,0,0-.146-.3.545.545,0,0,0-.178-.18.268.268,0,0,0-.207-.032.272.272,0,0,0-.175.119.54.54,0,0,0-.08.243,1.435,1.435,0,0,0,0,.338,3.938,3.938,0,0,0,.073.421,3.748,3.748,0,0,0,.119.406,1.335,1.335,0,0,0,.143.306.6.6,0,0,0,.178.18.286.286,0,0,0,.382-.088.564.564,0,0,0,.08-.243,1.423,1.423,0,0,0,0-.338,2.976,2.976,0,0,0-.061-.431Zm.511-.114a3.23,3.23,0,0,1,.08.581,1.518,1.518,0,0,1-.061.486.922.922,0,0,1-.219.372.883.883,0,0,1-.837.192.907.907,0,0,1-.36-.243,1.513,1.513,0,0,1-.27-.418,3.116,3.116,0,0,1-.185-.557,2.964,2.964,0,0,1-.078-.581,1.46,1.46,0,0,1,.058-.486.866.866,0,0,1,.219-.37.788.788,0,0,1,.394-.207.776.776,0,0,1,.443.012.9.9,0,0,1,.36.243,1.547,1.547,0,0,1,.272.423A3.368,3.368,0,0,1,52,62.4Zm-4.621,2.24.973-1.664a2.157,2.157,0,0,0,.122-.243.525.525,0,0,0,.032-.268.406.406,0,0,0-.175-.3.564.564,0,0,0-.4-.071,1.523,1.523,0,0,0-.557.195l-.2-.4a1.763,1.763,0,0,1,.355-.161,2.075,2.075,0,0,1,.4-.09,1.119,1.119,0,0,1,.786.134.783.783,0,0,1,.338.591.764.764,0,0,1,0,.224,1.231,1.231,0,0,1-.056.212,1.566,1.566,0,0,1-.085.195c-.034.063-.068.119-.1.17l-.606.924,1.112-.144.056.443ZM41.9,64.579l.216-2.853,1.459.109-.036.467-.934-.073-.056.715.846.063-.036.457L42.52,63.4l-.056.752.934.071-.036.467Zm-1.121-.219a.9.9,0,0,1-.265.066,1.311,1.311,0,0,1-.345-.019,1.007,1.007,0,0,1-.4-.163.953.953,0,0,1-.294-.333,1.338,1.338,0,0,1-.148-.486,2.505,2.505,0,0,1,.229-1.284,1.328,1.328,0,0,1,.311-.413.912.912,0,0,1,.392-.207,1.036,1.036,0,0,1,.433-.017,1.248,1.248,0,0,1,.326.1.747.747,0,0,1,.229.153L41,62.168a.55.55,0,0,0-.136-.1.583.583,0,0,0-.2-.071.508.508,0,0,0-.472.168,1.343,1.343,0,0,0-.3.7,1.321,1.321,0,0,0,.039.756.5.5,0,0,0,.384.319.622.622,0,0,0,.212,0,.487.487,0,0,0,.163-.051Zm-3.269-.535-.486-1.9A.889.889,0,0,1,37,61.791a.745.745,0,0,0-.019-.114l-.015-.122h0a.57.57,0,0,1-.027.117c-.01.041-.019.073-.029.117s-.022.085-.034.129l-.455,1.6-.443-.124.783-2.753.443.124.469,1.851q.015.068.029.131a.577.577,0,0,0,.022.119c.007.036.012.08.017.119h0a.973.973,0,0,1,.032-.119.545.545,0,0,1,.029-.122l.036-.129.44-1.547.44.126-.781,2.753ZM34.3,62.793l1.051-2.676.5.2L34.783,63Zm-.752-1.187a.958.958,0,0,1-.2.3.8.8,0,0,1-.282.178.844.844,0,0,1-.343.041,1.151,1.151,0,0,1-.387-.1,2.014,2.014,0,0,1-.343-.2,1.043,1.043,0,0,1-.243-.229l.365-.367a.868.868,0,0,0,.168.18,1.08,1.08,0,0,0,.243.148.46.46,0,0,0,.319.039.311.311,0,0,0,.207-.185.292.292,0,0,0,.027-.134.3.3,0,0,0-.029-.129.62.62,0,0,0-.075-.126c-.029-.041-.063-.085-.1-.129a2.678,2.678,0,0,1-.165-.212,1.216,1.216,0,0,1-.134-.243.922.922,0,0,1-.051-.285.766.766,0,0,1,.073-.326.922.922,0,0,1,.2-.287.766.766,0,0,1,.272-.17.8.8,0,0,1,.326-.041,1.1,1.1,0,0,1,.362.1,1.46,1.46,0,0,1,.321.192.929.929,0,0,1,.2.212l-.336.343a1.037,1.037,0,0,0-.146-.161.8.8,0,0,0-.214-.141.392.392,0,0,0-.292-.029.319.319,0,0,0-.192.18.263.263,0,0,0-.024.134.374.374,0,0,0,.034.131.605.605,0,0,0,.075.131c.029.044.063.088.1.134s.1.134.161.212a1.27,1.27,0,0,1,.136.243.834.834,0,0,1,.056.285.8.8,0,0,1-.092.321ZM16.725,37.127c.579-2.1,1.216-4.378,1.725-6.268-1.014,1.776-2.505,4.4-3.841,6.781.8-.18,1.557-.37,2.116-.513M11.5,39.961c-5.407,1.6-7.226,6.757-5.446,6.358.82-.185,1.924-.7,3.588-3.327.348-.574,1.019-1.659,1.858-3.031M59.622,22.295a.681.681,0,0,0-.243-.6.878.878,0,0,0-.708-.085l-.141.032c-.058.015-.1.024-.129.034v1.481a.219.219,0,0,0,.156.148.627.627,0,0,0,.319,0,.888.888,0,0,0,.542-.338A1.08,1.08,0,0,0,59.622,22.295Zm-.195-1.909a.589.589,0,0,0-.187-.486.657.657,0,0,0-.559-.078l-.139.032-.146.036v1.5l.146-.029a1.124,1.124,0,0,0,.669-.348.951.951,0,0,0,.216-.628Zm.9,1.041a.73.73,0,0,1,.292.258.744.744,0,0,1,.112.426,1.134,1.134,0,0,1-.126.545,1.216,1.216,0,0,1-.365.409,2.466,2.466,0,0,1-.581.3,5.211,5.211,0,0,1-.771.207l-2.06.411v-.224l.219-.068a.99.99,0,0,0,.185-.078.35.35,0,0,0,.141-.139.421.421,0,0,0,.039-.19V20.432a.384.384,0,0,0-.032-.165.2.2,0,0,0-.148-.09.841.841,0,0,0-.2-.022h-.2v-.209l2.153-.428a2.1,2.1,0,0,1,1.172,0,.6.6,0,0,1,.362.6.837.837,0,0,1-.083.375,1.056,1.056,0,0,1-.243.316,1.756,1.756,0,0,1-.326.243,3.225,3.225,0,0,1-.409.212v.054a2.048,2.048,0,0,1,.455,0,1.216,1.216,0,0,1,.418.107Zm2.649-.219a3.442,3.442,0,0,0-.314.187,1.554,1.554,0,0,0-.243.2.766.766,0,0,0-.165.243.774.774,0,0,0-.058.306.377.377,0,0,0,.1.3.287.287,0,0,0,.243.051.564.564,0,0,0,.243-.114.973.973,0,0,0,.178-.195Zm1.379,1.216a2.774,2.774,0,0,1-.289.158,1.535,1.535,0,0,1-.353.114.89.89,0,0,1-.5,0,.4.4,0,0,1-.221-.243h-.015a2.648,2.648,0,0,1-.185.2,1.292,1.292,0,0,1-.19.156,1.7,1.7,0,0,1-.243.144,1.625,1.625,0,0,1-.341.1.73.73,0,0,1-.555-.085.523.523,0,0,1-.231-.472.956.956,0,0,1,.051-.326.9.9,0,0,1,.144-.258.958.958,0,0,1,.195-.19,2.81,2.81,0,0,1,.243-.161c.168-.095.37-.2.6-.314a4.238,4.238,0,0,0,.518-.285v-.289a1.117,1.117,0,0,0-.012-.187.487.487,0,0,0-.049-.187.265.265,0,0,0-.124-.129.323.323,0,0,0-.221-.019.591.591,0,0,0-.207.078,1.012,1.012,0,0,0-.134.1,1.148,1.148,0,0,0,.049.165.693.693,0,0,1,.039.219.487.487,0,0,1-.024.124.343.343,0,0,1-.073.131.729.729,0,0,1-.143.117.825.825,0,0,1-.243.08.433.433,0,0,1-.355-.046.326.326,0,0,1-.122-.277.487.487,0,0,1,.124-.309,1.357,1.357,0,0,1,.3-.272,2.189,2.189,0,0,1,.406-.214,2.535,2.535,0,0,1,.426-.131,3.313,3.313,0,0,1,.5-.066.992.992,0,0,1,.406.054.535.535,0,0,1,.277.243.907.907,0,0,1,.1.472c0,.214,0,.469-.012.766s-.012.486-.012.581a.382.382,0,0,0,.039.195.182.182,0,0,0,.112.09.435.435,0,0,0,.148,0l.182-.032Zm3.756-.669-1.313.26q-.243-.387-.445-.649c-.136-.175-.263-.338-.382-.486l-.168.178v.618a.348.348,0,0,0,.032.163.139.139,0,0,0,.112.073.537.537,0,0,0,.117.017.849.849,0,0,0,.136,0v.207l-1.737.345v-.212a1.359,1.359,0,0,0,.141-.044.73.73,0,0,0,.124-.051.268.268,0,0,0,.122-.122.421.421,0,0,0,.032-.178V18.712a.462.462,0,0,0-.039-.187.243.243,0,0,0-.119-.129.411.411,0,0,0-.158-.027,1.535,1.535,0,0,0-.192,0V18.16l1.389-.353.041.039v2.946c.139-.153.294-.328.467-.528s.311-.362.413-.486a.416.416,0,0,0,.1-.168.488.488,0,0,0,.012-.063c0-.034-.029-.056-.09-.068a1.384,1.384,0,0,0-.263,0v-.2l1.423-.3v.2a3.578,3.578,0,0,0-.428.243,3.276,3.276,0,0,0-.321.243c-.075.066-.151.134-.221.2s-.153.158-.243.26c.18.243.35.448.5.647s.316.409.486.63a.328.328,0,0,0,.214.136.917.917,0,0,0,.258,0Zm1.98-2.189a3.313,3.313,0,0,0-.017-.345.951.951,0,0,0-.058-.282.346.346,0,0,0-.129-.175.282.282,0,0,0-.209-.027.5.5,0,0,0-.35.285,1.688,1.688,0,0,0-.141.73Zm1.065.866a2.231,2.231,0,0,1-.243.353,1.984,1.984,0,0,1-.314.309,2.209,2.209,0,0,1-.377.243,1.946,1.946,0,0,1-.44.144,1.9,1.9,0,0,1-.715.022,1.09,1.09,0,0,1-.486-.224.973.973,0,0,1-.292-.421,1.593,1.593,0,0,1-.1-.576,1.664,1.664,0,0,1,.1-.579,1.946,1.946,0,0,1,.3-.535,1.912,1.912,0,0,1,1.121-.681,1.7,1.7,0,0,1,.642-.032.9.9,0,0,1,.418.185.766.766,0,0,1,.231.336,1.352,1.352,0,0,1,.073.45v.185l-1.89.375a1.321,1.321,0,0,0,.219.849.688.688,0,0,0,.7.165.973.973,0,0,0,.472-.243,1.81,1.81,0,0,0,.358-.443Zm3.062-2.23a.691.691,0,0,1-.131.406.521.521,0,0,1-.345.243.486.486,0,0,1-.343-.036.287.287,0,0,1-.141-.28.684.684,0,0,1,.015-.158.492.492,0,0,1,.024-.107.7.7,0,0,0-.27.144,1.139,1.139,0,0,0-.243.275v1.564a.326.326,0,0,0,.032.158.161.161,0,0,0,.1.083.642.642,0,0,0,.2,0,1.5,1.5,0,0,0,.2-.015v.209l-1.873.372V20.85a.45.45,0,0,0,.141-.044.832.832,0,0,0,.122-.051.268.268,0,0,0,.122-.122.416.416,0,0,0,.034-.175V18.8a.314.314,0,0,0-.049-.175.292.292,0,0,0-.114-.1.34.34,0,0,0-.126-.034.973.973,0,0,0-.168,0v-.209l1.338-.343.041.036v.409h.012a2.148,2.148,0,0,1,.406-.438,1.007,1.007,0,0,1,.45-.219.467.467,0,0,1,.416.08.486.486,0,0,1,.151.4Zm3.349-.973a.791.791,0,0,0-.243.144.73.73,0,0,0-.2.28q-.243.564-.486,1.2c-.17.426-.358.883-.564,1.377a4.892,4.892,0,0,1-.345.691,2.605,2.605,0,0,1-.306.411,1.216,1.216,0,0,1-.265.219.849.849,0,0,1-.268.1.525.525,0,0,1-.428-.066.358.358,0,0,1-.165-.306.53.53,0,0,1,.019-.153.516.516,0,0,1,.214-.292.584.584,0,0,1,.212-.088.421.421,0,0,1,.3.054,1.3,1.3,0,0,1,.3.243,3.5,3.5,0,0,0,.229-.328,1.718,1.718,0,0,0,.2-.426q-.333-.642-.589-1.114c-.17-.314-.362-.662-.576-1.048a.384.384,0,0,0-.187-.175.535.535,0,0,0-.243-.044V17.7l1.7-.341v.212a.817.817,0,0,0-.219.085c-.083.041-.124.085-.124.126a.183.183,0,0,0,0,.049.234.234,0,0,0,.032.071c.063.119.153.287.27.486l.406.744c.114-.292.212-.54.292-.752s.161-.413.243-.615a.625.625,0,0,0,.034-.119v-.056a.092.092,0,0,0-.049-.08.375.375,0,0,0-.114-.044.946.946,0,0,0-.136-.017h-.1v-.18l1.155-.231Zm-5.278,6.531h0s-.691.944-1.073.776a9.143,9.143,0,0,1-1.16-.7c-.6.545-1.187,1.056-1.513,1.309-.486.365-.866-.341-.866-.341l2.756-3.036c.046-.049,1.856,2,1.856,2Zm-3.405,5.947h0c.486-1.486.375-2.578-.243-2.432s-1.53,1.459-2.021,2.948-.365,2.576.243,2.432S68.4,31.2,68.882,29.718ZM44.69,31.759h0a6.227,6.227,0,0,1,3.663,1.43,6.63,6.63,0,0,1,1.523,2.024,20.947,20.947,0,0,0,2.374-9.243,7.543,7.543,0,0,1-.523.557,1.4,1.4,0,0,1-2.211-.153c2.05-2.189,2.868-5.594,1.459-5.268s-3.892,2.88-5.49,7.514a19.074,19.074,0,0,0-.793,3.152Zm2.539,5.862h0a2.992,2.992,0,0,0,1.4-.81A4.629,4.629,0,0,0,47,34.2a3.482,3.482,0,0,0-2.476-.742c-.085,2.685.749,4.617,2.712,4.176Zm15.455,5.225a1.459,1.459,0,0,1-.323.165,2.316,2.316,0,0,1-.418.124.754.754,0,0,1-.579-.058.589.589,0,0,1-.2-.518V41.279l.465-.092v1.292c0,.2.1.289.311.243a1.412,1.412,0,0,0,.165-.046.486.486,0,0,0,.107-.051V41.082l.469-.092Zm-2.25-1.53-.4-.243-.4.4-.156-.117.387-.486a.27.27,0,0,1,.168-.109.173.173,0,0,1,.165.044l.387.319Zm-.187,2.5a.272.272,0,0,1-.068.175.277.277,0,0,1-.161.1.2.2,0,0,1-.165-.034.18.18,0,0,1-.068-.148.26.26,0,0,1,.068-.175.277.277,0,0,1,.165-.1.178.178,0,0,1,.161.034.17.17,0,0,1,.071.158Zm.109-1.6a.428.428,0,0,0-.095-.316.27.27,0,0,0-.26-.061.469.469,0,0,0-.3.2.778.778,0,0,0-.124.443Zm.455,0V42.3a.534.534,0,0,1,0,.088l-1.192.409a.37.37,0,0,0,.17.289.486.486,0,0,0,.341.039,1.338,1.338,0,0,0,.28-.09,1.022,1.022,0,0,0,.243-.136l.134.345a1.389,1.389,0,0,1-.3.163,2.09,2.09,0,0,1-.387.117.973.973,0,0,1-.4,0,.625.625,0,0,1-.292-.153.766.766,0,0,1-.178-.292,1.216,1.216,0,0,1-.061-.4,1.5,1.5,0,0,1,.058-.426,1.216,1.216,0,0,1,.17-.358,1.046,1.046,0,0,1,.27-.268,1,1,0,0,1,.36-.146.849.849,0,0,1,.341,0,.533.533,0,0,1,.243.134.577.577,0,0,1,.153.243,1.053,1.053,0,0,1,.044.37Zm-2.505,1.615V41.865l.472-.092v1.968Zm.506-2.651a.306.306,0,0,1-.08.207.316.316,0,0,1-.187.117.216.216,0,0,1-.192-.041.214.214,0,0,1-.078-.175.311.311,0,0,1,.078-.2.326.326,0,0,1,.192-.117.216.216,0,0,1,.187.041.2.2,0,0,1,.083.18Zm-1.4,2.843V42.9l-.764.151v1.129l-.486.1V41.632l.486-.095v1.092l.764-.153V41.384l.486-.095v2.642Zm-2.858-1.039a.266.266,0,0,0-.095,0,.681.681,0,0,0-.134.015.5.5,0,0,0-.316.2.783.783,0,0,0-.124.486.591.591,0,0,0,.117.413.319.319,0,0,0,.309.083.8.8,0,0,0,.136-.044.462.462,0,0,0,.107-.061Zm.467,1.459a1.172,1.172,0,0,1-.058.379.844.844,0,0,1-.165.3.91.91,0,0,1-.258.212,1.165,1.165,0,0,1-.338.122,1.608,1.608,0,0,1-.4.036,1.17,1.17,0,0,1-.3-.049l.136-.418a.917.917,0,0,0,.229.041,1.253,1.253,0,0,0,.294-.024.486.486,0,0,0,.3-.168.547.547,0,0,0,.095-.333v-.122a.729.729,0,0,1-.158.083,1,1,0,0,1-.185.054.754.754,0,0,1-.321,0,.537.537,0,0,1-.243-.136.7.7,0,0,1-.163-.26,1.131,1.131,0,0,1-.058-.384,1.445,1.445,0,0,1,.066-.45,1.022,1.022,0,0,1,.486-.6,1.4,1.4,0,0,1,.394-.139,1.5,1.5,0,0,1,.353-.024.936.936,0,0,1,.287.044Zm-2.432.521v-1.3a.27.27,0,0,0-.083-.216.289.289,0,0,0-.243-.034.9.9,0,0,0-.158.044.82.82,0,0,0-.122.058v1.564l-.465.092V43.31a2.3,2.3,0,0,1,.328-.165,1.975,1.975,0,0,1,.409-.122.817.817,0,0,1,.611.049.513.513,0,0,1,.195.452v1.348Zm-1.661-1.4a.112.112,0,0,1,.017.017.708.708,0,0,1,.163.292,1.333,1.333,0,0,1,.056.4,1.578,1.578,0,0,1-.056.418,1.246,1.246,0,0,1-.163.36,1.1,1.1,0,0,1-.263.268.936.936,0,0,1-.358.148.713.713,0,0,1-.36,0,.61.61,0,0,1-.263-.161.776.776,0,0,1-.163-.3,1.348,1.348,0,0,1-.054-.4,1.566,1.566,0,0,1,.054-.418,1.231,1.231,0,0,1,.163-.358,1.1,1.1,0,0,1,.263-.268.949.949,0,0,1,.36-.148.73.73,0,0,1,.355,0l.117-.243a.46.46,0,0,1,.119-.078.511.511,0,0,1,.175-.049.311.311,0,0,1,.148.012c.039.017.058.034.061.054Zm-.243.8a.883.883,0,0,0-.092-.448.243.243,0,0,0-.277-.112.392.392,0,0,0-.28.224,1.1,1.1,0,0,0-.092.486.851.851,0,0,0,.092.443.243.243,0,0,0,.28.109.377.377,0,0,0,.277-.219,1.085,1.085,0,0,0,.107-.472Zm-1.554-.4v1.588a1.589,1.589,0,0,1-.324.165,2.376,2.376,0,0,1-.418.124.754.754,0,0,1-.579-.058.589.589,0,0,1-.2-.518V43.991l.465-.092V45.19c0,.2.1.289.311.243a1.364,1.364,0,0,0,.163-.046.518.518,0,0,0,.109-.051V43.782l.292-.058.095-.195a.581.581,0,0,1,.122-.078.511.511,0,0,1,.175-.049.28.28,0,0,1,.148.015c.039.015.058.032.061.051Zm-2.355,2.177V44.862a.26.26,0,0,0-.088-.226.3.3,0,0,0-.243-.032.589.589,0,0,0-.144.049.567.567,0,0,0-.124.078v1.535l-.465.092V43.493l.465-.092v.958a.956.956,0,0,1,.185-.1.8.8,0,0,1,.2-.066.62.62,0,0,1,.508.068.533.533,0,0,1,.18.457v1.335Zm-1.9-1.851v2.211l-.486.1V44.393l-.525.1v-.433l1.53-.3v.433Zm-2.466,2.69v-1.3a.263.263,0,0,0-.083-.216.282.282,0,0,0-.243-.034.842.842,0,0,0-.158.044.715.715,0,0,0-.122.058V47.1l-.452.083V45.319a2.4,2.4,0,0,1,.326-.165,2.046,2.046,0,0,1,.411-.122.81.81,0,0,1,.608.049.508.508,0,0,1,.2.452v1.348Zm-1.8-1.717-.4-.243-.4.4-.156-.117.387-.474a.27.27,0,0,1,.168-.109.17.17,0,0,1,.165.044l.387.319Zm-.08.9a.438.438,0,0,0-.092-.316.275.275,0,0,0-.263-.061.486.486,0,0,0-.3.2.778.778,0,0,0-.124.443Zm.455,0v.083a.532.532,0,0,1,0,.088l-1.192.409a.377.377,0,0,0,.17.289.487.487,0,0,0,.343.039,1.436,1.436,0,0,0,.28-.09,1.136,1.136,0,0,0,.243-.136l.131.345a1.33,1.33,0,0,1-.3.163,1.983,1.983,0,0,1-.387.117.985.985,0,0,1-.4,0,.606.606,0,0,1-.289-.153.73.73,0,0,1-.18-.292,1.216,1.216,0,0,1-.061-.4,1.5,1.5,0,0,1,.063-.413,1.216,1.216,0,0,1,.173-.358,1.036,1.036,0,0,1,.268-.268,1,1,0,0,1,.362-.146.805.805,0,0,1,.341,0,.521.521,0,0,1,.243.131.6.6,0,0,1,.153.243,1.121,1.121,0,0,1,.049.348ZM38.55,47.786,37.663,46.4a.793.793,0,0,1-.058-.1c-.019-.032-.034-.063-.046-.088s-.027-.063-.041-.1h0a.86.86,0,0,0,0,.109V47.99l-.416.083V45.426l.416-.083.868,1.355.056.1c.017.034.034.063.049.09s.032.061.046.092h0v-.112a.824.824,0,0,1,0-.114V45.144l.416-.083v2.644Zm-3.038.6V47.078a.243.243,0,0,0-.083-.209.263.263,0,0,0-.221-.034.486.486,0,0,0-.277.153V48.5l-.469.095V47.263a.207.207,0,0,0-.088-.187.307.307,0,0,0-.243-.029.752.752,0,0,0-.258.1V48.71l-.465.092V46.944a2.284,2.284,0,0,1,.319-.165,2.092,2.092,0,0,1,.375-.114.924.924,0,0,1,.37-.012.605.605,0,0,1,.229.095,1.129,1.129,0,0,1,.243-.187,1.189,1.189,0,0,1,.372-.136.569.569,0,0,1,.486.078.54.54,0,0,1,.2.443v1.362ZM32.219,46.9l-.418-.4c.022-.08.09-.129.2-.151a.214.214,0,0,1,.243.063l.207.438Zm.341,1.121-.243.068a.878.878,0,0,0-.2.09.469.469,0,0,0-.144.131.326.326,0,0,0-.054.185.2.2,0,0,0,.1.195.4.4,0,0,0,.282.022,1.273,1.273,0,0,0,.151-.041.46.46,0,0,0,.114-.054Zm.443.761a1,1,0,0,1-.129.08,1.509,1.509,0,0,1-.165.078c-.063.027-.126.049-.195.071a1.426,1.426,0,0,1-.207.051.878.878,0,0,1-.625-.041.457.457,0,0,1-.207-.428.623.623,0,0,1,.09-.343.834.834,0,0,1,.243-.243,1.661,1.661,0,0,1,.348-.175,3.436,3.436,0,0,1,.406-.124v-.1a.2.2,0,0,0-.092-.2.413.413,0,0,0-.255,0,1.408,1.408,0,0,0-.277.09,1.774,1.774,0,0,0-.243.129l-.119-.311a2.432,2.432,0,0,1,.3-.156,1.836,1.836,0,0,1,.387-.122.73.73,0,0,1,.547.054.55.55,0,0,1,.192.5Zm-3.009.674V46.813l.486-.095v2.211l.773-.153v.431Zm-1.608-1.25a.272.272,0,0,0-.095,0,.681.681,0,0,0-.134.015.486.486,0,0,0-.316.2.783.783,0,0,0-.124.486.591.591,0,0,0,.117.413.319.319,0,0,0,.309.083.8.8,0,0,0,.136-.044.462.462,0,0,0,.107-.061Zm.467,1.472a1.168,1.168,0,0,1-.058.377.844.844,0,0,1-.165.3.91.91,0,0,1-.258.212,1.165,1.165,0,0,1-.338.122,1.608,1.608,0,0,1-.4.036,1.153,1.153,0,0,1-.3-.049l.136-.418a.917.917,0,0,0,.229.041,1.265,1.265,0,0,0,.294-.024.486.486,0,0,0,.3-.168.547.547,0,0,0,.095-.333v-.122a.8.8,0,0,1-.158.083,1,1,0,0,1-.185.054.764.764,0,0,1-.323,0,.54.54,0,0,1-.243-.136.652.652,0,0,1-.163-.26A1.126,1.126,0,0,1,27.252,49a1.445,1.445,0,0,1,.068-.45,1.058,1.058,0,0,1,.19-.35.987.987,0,0,1,.3-.243,1.4,1.4,0,0,1,.394-.139,1.5,1.5,0,0,1,.367-.032.951.951,0,0,1,.287.044Zm-2.432.486v-1.3a.27.27,0,0,0-.083-.216.289.289,0,0,0-.243-.034.842.842,0,0,0-.158.044.82.82,0,0,0-.122.058v1.564l-.465.092V48.508a2.4,2.4,0,0,1,.326-.165,2.046,2.046,0,0,1,.411-.122.805.805,0,0,1,.611.051.506.506,0,0,1,.195.45V50.07Zm-1.661-1.4.017.015a.8.8,0,0,1,.163.294,1.335,1.335,0,0,1,.054.4,1.579,1.579,0,0,1-.054.418,1.313,1.313,0,0,1-.163.36,1.1,1.1,0,0,1-.263.268.936.936,0,0,1-.358.148.715.715,0,0,1-.36,0,.589.589,0,0,1-.263-.163.744.744,0,0,1-.163-.3,1.345,1.345,0,0,1-.056-.4,1.566,1.566,0,0,1,.056-.418,1.17,1.17,0,0,1,.163-.358,1.009,1.009,0,0,1,.263-.265.937.937,0,0,1,.36-.151.73.73,0,0,1,.355,0l.114-.243a.523.523,0,0,1,.122-.078.511.511,0,0,1,.175-.049.311.311,0,0,1,.148,0c.039.017.058.034.061.054Zm-.375,2.189a.26.26,0,0,1-.068.175.277.277,0,0,1-.161.1.2.2,0,0,1-.165-.034.187.187,0,0,1-.066-.151.27.27,0,0,1,.066-.173.3.3,0,0,1,.165-.1.187.187,0,0,1,.161.036.17.17,0,0,1,.075.134Zm.141-1.386a.883.883,0,0,0-.092-.448.243.243,0,0,0-.277-.112.387.387,0,0,0-.28.224,1.1,1.1,0,0,0-.092.486.851.851,0,0,0,.092.443.243.243,0,0,0,.28.109.382.382,0,0,0,.277-.219,1.085,1.085,0,0,0,.1-.5ZM22.964,49.2v1.588a1.5,1.5,0,0,1-.321.165,2.432,2.432,0,0,1-.418.124.752.752,0,0,1-.576-.071.589.589,0,0,1-.2-.518V49.209l.465-.092v1.292c0,.2.1.289.311.243a1.023,1.023,0,0,0,.163-.046.587.587,0,0,0,.109-.051V48.995l.292-.058.095-.195a.7.7,0,0,1,.122-.078.511.511,0,0,1,.175-.049.28.28,0,0,1,.148.015c.039.015.058.032.061.051ZM19.88,51.476V48.82l.486-.095v2.211l.771-.153v.431Zm-1.039.195a.594.594,0,0,1-.119.061.973.973,0,0,1-.163.049.416.416,0,0,1-.4-.075.608.608,0,0,1-.129-.44v-1l-.243.046v-.372l.243-.046v-.44l.46-.243v.581l.348-.068v.372l-.348.068v.973c0,.08.019.131.061.156a.221.221,0,0,0,.151.019.346.346,0,0,0,.075-.027.464.464,0,0,0,.061-.032Zm-1.7-1.732-.4-.243-.4.4-.158-.117.387-.474a.282.282,0,0,1,.168-.109.175.175,0,0,1,.165.044l.387.319Zm.017-.387.207-.521a.326.326,0,0,1,.243-.156c.112-.024.178,0,.2.071l-.418.562Zm-.095,1.528c-.085.022-.168.044-.243.068a.854.854,0,0,0-.207.09.46.46,0,0,0-.141.131.306.306,0,0,0-.054.185.2.2,0,0,0,.1.195.4.4,0,0,0,.282.022,1.16,1.16,0,0,0,.151-.041.421.421,0,0,0,.114-.054Zm.452.769a.953.953,0,0,1-.126.08,1.812,1.812,0,0,1-.168.078c-.061.027-.126.049-.192.071a1.509,1.509,0,0,1-.207.051.885.885,0,0,1-.628-.041.457.457,0,0,1-.207-.428.628.628,0,0,1,.092-.343.834.834,0,0,1,.243-.243,1.583,1.583,0,0,1,.345-.175,3.583,3.583,0,0,1,.406-.124v-.1c0-.1-.029-.168-.092-.2a.394.394,0,0,0-.255-.015,1.409,1.409,0,0,0-.277.09,1.945,1.945,0,0,0-.243.129l-.119-.311a2.6,2.6,0,0,1,.3-.156,1.837,1.837,0,0,1,.387-.122.73.73,0,0,1,.55.054.555.555,0,0,1,.19.5Zm-2.25.538V51.1a.26.26,0,0,0-.088-.226.3.3,0,0,0-.243-.032.557.557,0,0,0-.144.049.586.586,0,0,0-.126.078V52.5L14.2,52.6V49.732l.465-.092v.953a1.036,1.036,0,0,1,.185-.1.817.817,0,0,1,.207-.066.62.62,0,0,1,.508.068.533.533,0,0,1,.18.457V52.3Zm-1.4.187a.973.973,0,0,1-.226.146,1.2,1.2,0,0,1-.311.1.851.851,0,0,1-.384,0,.674.674,0,0,1-.314-.192.973.973,0,0,1-.212-.382,1.946,1.946,0,0,1-.078-.586,2.294,2.294,0,0,1,.078-.618,1.557,1.557,0,0,1,.212-.467,1.143,1.143,0,0,1,.314-.316,1.061,1.061,0,0,1,.384-.161,1.041,1.041,0,0,1,.309-.019.574.574,0,0,1,.229.056l-.151.44a.387.387,0,0,0-.139-.044.5.5,0,0,0-.19,0,.586.586,0,0,0-.4.3,1.4,1.4,0,0,0-.153.713,1.07,1.07,0,0,0,.153.649.375.375,0,0,0,.394.148.63.63,0,0,0,.19-.068.511.511,0,0,0,.139-.1Zm-2.435-4.035,52.1-10.51A1.09,1.09,0,0,1,64.9,39.119v1.357l2.432-.486a2.009,2.009,0,0,1,1.545-1.43,1.328,1.328,0,0,1,1.622,1.3A2.161,2.161,0,0,1,68.882,41.8,1.237,1.237,0,0,1,67.337,41l-2.432.486v1.355a1.771,1.771,0,0,1-1.369,1.647L11.432,55a1.087,1.087,0,0,1-1.369-1.092V52.551l-2.432.486a2,2,0,0,1-1.549,1.447,1.328,1.328,0,0,1-1.622-1.3,2.161,2.161,0,0,1,1.622-1.946,1.232,1.232,0,0,1,1.542.808l2.432-.486V50.208a1.766,1.766,0,0,1,1.377-1.671Zm-5.8-15.89c-2.2,1.61-3.685,3.568-3.953,6.027C1.316,42,4.332,41.622,6.5,38.628,8.124,36.388,7.373,34.452,5.631,32.647Zm27.882-9.136a2.92,2.92,0,0,0,2.279,2.661,5.43,5.43,0,0,1,2.554,1.688C37.877,24.676,36.172,23.37,33.513,23.511ZM20.332,19.593l2.046-.034a2.208,2.208,0,0,0,1.27,1.946,3.2,3.2,0,0,1-2.157-.326C20.933,20.9,20.7,20.276,20.332,19.593Zm-.046-.6h2.16a3.07,3.07,0,0,1,1.671-1.613,3.62,3.62,0,0,0-2.359.1A3.994,3.994,0,0,0,20.286,19Zm2.987.764L25.3,20a2.188,2.188,0,0,0,.99,2.089,3.137,3.137,0,0,1-2.092-.62C23.689,21.144,23.541,20.488,23.273,19.76Zm.036-.6,2.138.294a3.082,3.082,0,0,1,1.878-1.367,3.694,3.694,0,0,0-2.35-.221A3.954,3.954,0,0,0,23.309,19.164Zm2.561,1.187,1.995.448a2.189,2.189,0,0,0,.781,2.177,3.1,3.1,0,0,1-2.021-.822C26.146,21.769,26.063,21.1,25.871,20.351Zm.095-.589s2.009.486,2.1.506a3.062,3.062,0,0,1,2-1.175,3.706,3.706,0,0,0-2.318-.452A3.919,3.919,0,0,0,25.966,19.763Zm2.622,1.459,1.965.572a2.191,2.191,0,0,0,.64,2.223,3.138,3.138,0,0,1-1.963-.949,3.24,3.24,0,0,1-.642-1.853Zm.134-.581,2.063.637a3.053,3.053,0,0,1,2.072-1.046,3.683,3.683,0,0,0-2.284-.6,3.754,3.754,0,0,0-1.851,1Zm2.508,1.885,1.868.825a2.186,2.186,0,0,0,.333,2.289,3.094,3.094,0,0,1-1.817-1.216,3.141,3.141,0,0,1-.384-1.9Zm.209-.559,1.958.9a3.048,3.048,0,0,1,2.189-.754,3.756,3.756,0,0,0-2.189-.9,4.006,4.006,0,0,0-1.958.754ZM19.089,27.485c-4.865.46-9.586,2.067-12.2,4.283,2.644,2.432,2.34,6.324-.851,8.756C3.362,42.561.258,41.807.017,38.154c-.209-3.184,1.559-5.378,3.709-7.025C.82,28.381.224,25.374,4.7,22.343c3.233-2.189,8.484-3.225,12.891-3.559a4.152,4.152,0,0,1,3.5-1.7l-1.763,2.1L21.3,21.461a3.877,3.877,0,0,1-3.617-1.671c-4.967.486-9.435,1.673-12.619,4.529-2.133,1.912-1.588,3.95.336,5.869,3.053-1.815,7.891-2.846,14.049-3.3l.192-.316,2.873-.645-.285,1.029a5.783,5.783,0,0,1,3.663,1.618c2.352,3.162-1.141,6.942-6.669,9.272-.221.8-.389,1.408-.467,1.7-.163.552-.428,1.664-.243,1.771s.754-.362,1.136-.868c.579-.73,2.736-3.359,3.25-4.218l1.914-.431-1.148,4.135c1.722-3.719,3.361-4.636,3.931-4.763.946-.214,1.8.153,1.277,2.119-.163.632-.275,1.041-.586,2.14-.1.365-.275,1.107-.156,1.182s.353-.243.6-.581c.214-.275,1.216-1.737,2.1-3.074l1.963-7.054L34.7,29.48l-2.364,8.513c1.7-3.717,3.349-4.634,3.931-4.763.932-.209,1.81.243,1.333,1.965-.187.64-.343,1.2-.645,2.294-.107.37-.272,1.1-.153,1.18s.35-.243.593-.579c.387-.486,3.262-4.8,3.6-5.375V32.7a14.952,14.952,0,0,1,1.172-4.378c2.549-6.081,6.592-8.389,8.662-8.856,1.727-.387,2.62.693,2.768,2.2a1.282,1.282,0,0,1,1.019,1.051c1.063,5.164-.455,11.5-4.062,14.638a1.894,1.894,0,0,1,.26,1.827c-.445,1.2-1.917.192-1.917.192a1.89,1.89,0,0,0-.1-.842,7.861,7.861,0,0,1-1.683.589c-2.946.662-5.862-1.065-6.137-4.935-.89,1.425-3.121,4.969-3.763,5.915-.82,1.216-1.433,1.671-1.929,1.783-.8.178-1.282-.323-.885-1.737.292-1.019.486-1.8.815-2.943.3-1.048.323-1.613-.088-1.52-.691.156-3.245,3.909-4.167,7.171l-1.914.428.988-3.544c-.635,1-1.216,1.9-1.484,2.308-.832,1.231-1.433,1.671-1.929,1.783-.8.178-1.294-.321-.885-1.737.292-1.019.486-1.8.815-2.943.287-1.046.326-1.613-.088-1.52-.7.158-3.257,3.911-4.179,7.173l.017-.041-.017.041-1.914.428,1.559-5.594c-.953,1.289-2.128,2.865-2.795,3.848-1.216,1.841-2.111,2.5-2.892,2.676-1.2.27-1.946-.486-1.33-2.6.139-.486.659-2.345,1.3-4.665l-2.654.6c-.73,1.272-1.321,2.359-1.7,3.055-1.6,3.038-2.994,5.242-5.682,5.86-4.544,1.007-3.846-7.783,6.468-10.3C14.971,34.279,17.89,29.456,19.089,27.485Zm.423,9.309c2.119-1.192,4.1-2.637,4.95-5.351.713-2.265-.6-3.481-2.4-3.892-.628,2.262-1.773,6.417-2.552,9.233Zm59.758-.122A34.559,34.559,0,0,1,17.246,55.423l1.885-.384A32.837,32.837,0,0,0,77.422,38.083l.379-1.267ZM44.785,0a34.581,34.581,0,0,1,29.4,16.4l-1.807.367a32.812,32.812,0,0,0-50.8-5.431,33.143,33.143,0,0,0-4.9,6.246l-2.25.457A34.588,34.588,0,0,1,44.785,0Zm-6,6.964A1.379,1.379,0,1,1,37.4,8.343a1.379,1.379,0,0,1,1.379-1.379ZM44.59,5.816a1.9,1.9,0,1,1-1.895,1.9,1.9,1.9,0,0,1,1.895-1.9Zm-10.087,3a.861.861,0,1,1-.61.251A.861.861,0,0,1,34.5,8.812ZM50.4,6.964a1.377,1.377,0,1,0,.976.4,1.379,1.379,0,0,0-.976-.4Zm4.281,1.849a.861.861,0,1,0,.61.251.861.861,0,0,0-.61-.251Zm2.982,1.963a.343.343,0,1,0,.245.1.345.345,0,0,0-.245-.1Zm-26.143,0a.343.343,0,1,1-.243.1.345.345,0,0,1,.243-.1Zm54.1,8.662c-.343.569-5.373,8.513-5.752,9-.243.326-.474.662-.593.574s.061-.812.158-1.175c.316-1.1.428-1.5.593-2.136a3.082,3.082,0,0,0,.124-1.435c-.139-.749-.754-.881-1.408-.73-.564.126-2.189,1.029-3.892,4.673l1.129-4h-.034l.012-.046-1.914.431-.73,2.637c-.9,1.355-1.917,2.853-2.136,3.133-.243.338-.472.666-.606.581s.058-.815.165-1.182c.3-1.1,1.311-4.709,1.311-4.709l-1.924.445s-.165.623-.413,1.5a1.558,1.558,0,0,0-1.649-1.053c-1.007.226-2.274,1.33-3.366,3.989-.708,1.051-1.36,2.009-1.523,2.223-.255.338-.486.669-.608.584s.058-.817.168-1.185c.3-1.1,1.309-4.709,1.309-4.709l-1.924.445s-.243.91-.574,2.089c-.443,1.423-2.007,4.038-2.676,4.191s-.511-.688-.4-1.056c.3-1.1,1.309-4.709,1.309-4.709l-1.924.445s-1.411,5.108-1.7,6.12c-.4,1.428.141,2.676,1.352,2.4.788-.178,2-1.8,2.977-3.52-.129.448-.243.791-.277.973-.406,1.416.088,1.914.885,1.737.508-.114,1.1-.552,1.929-1.783.2-.3.574-.876,1.012-1.562-.063,1.637.752,2.513,1.946,2.247a3.851,3.851,0,0,0,2.116-1.851c-.126.973.331,1.3,1.009,1.148.508-.114,1.109-.555,1.929-1.78.28-.418.873-1.348,1.528-2.374l-1,3.578,1.912-.421h0l.017-.041-.017.041h0v0c.024-.09.051-.178.078-.268.992-3.182,3.43-6.711,4.111-6.862a.209.209,0,0,1,.28.161,3.6,3.6,0,0,1-.2,1.321c-.151.521-.272.973-.387,1.394h0v.019c-.141.513-.272,1-.435,1.557-.411,1.411.08,1.909.878,1.734.486-.109,1.1-.545,1.929-1.771.766-1.131,3.369-5.383,3.619-5.816C85.633,20.643,85.8,19.143,85.619,19.437ZM58.476,59.349a.606.606,0,1,1-.431.177A.608.608,0,0,1,58.476,59.349Z" transform="translate(0)"/></g></g></g></svg>