<?xml version="1.0" encoding="UTF-8"?>
<svg xmlns="http://www.w3.org/2000/svg" xmlns:xlink="http://www.w3.org/1999/xlink" width="14pt" height="14pt" viewBox="0 0 14 14" version="1.1">
<g id="surface1">
<path style=" stroke:none;fill-rule:nonzero;fill:rgb(100%,100%,100%);fill-opacity:1;" d="M 13.734375 6.703125 L 9.414062 2.386719 C 9.300781 2.273438 9.121094 2.273438 9.003906 2.386719 C 8.894531 2.5 8.894531 2.679688 9.003906 2.796875 L 12.832031 6.621094 L 0.289062 6.621094 C 0.128906 6.621094 0 6.75 0 6.90625 C 0 7.066406 0.128906 7.195312 0.289062 7.195312 L 12.832031 7.195312 L 9.003906 11.019531 C 8.894531 11.136719 8.894531 11.316406 9.003906 11.429688 C 9.0625 11.484375 9.136719 11.511719 9.210938 11.511719 C 9.28125 11.511719 9.359375 11.484375 9.414062 11.429688 L 13.734375 7.113281 C 13.84375 6.996094 13.84375 6.816406 13.734375 6.703125 Z M 13.734375 6.703125 "/>
</g>
</svg>
