<?xml version="1.0" encoding="UTF-8"?>
<svg xmlns="http://www.w3.org/2000/svg" xmlns:xlink="http://www.w3.org/1999/xlink" width="15pt" height="15pt" viewBox="0 0 15 15" version="1.1">
<g id="surface1">
<path style=" stroke:none;fill-rule:nonzero;fill:rgb(100%,100%,100%);fill-opacity:1;" d="M 14.910156 7.277344 L 10.222656 2.589844 C 10.097656 2.46875 9.902344 2.46875 9.777344 2.589844 C 9.65625 2.714844 9.65625 2.910156 9.777344 3.035156 L 13.933594 7.1875 L 0.3125 7.1875 C 0.140625 7.1875 0 7.328125 0 7.5 C 0 7.671875 0.140625 7.8125 0.3125 7.8125 L 13.933594 7.8125 L 9.777344 11.964844 C 9.65625 12.089844 9.65625 12.285156 9.777344 12.410156 C 9.839844 12.46875 9.921875 12.5 10 12.5 C 10.078125 12.5 10.160156 12.46875 10.222656 12.410156 L 14.910156 7.722656 C 15.03125 7.597656 15.03125 7.402344 14.910156 7.277344 Z M 14.910156 7.277344 "/>
</g>
</svg>
