<svg xmlns="http://www.w3.org/2000/svg" width="22.781" height="22.781" viewBox="0 0 22.781 22.781"><defs><style>.a{fill:#581008;fill-rule:evenodd;}</style></defs><path class="a" d="M19.591,13.929A11.391,11.391,0,1,0,30.981,25.319,11.343,11.343,0,0,0,19.591,13.929Zm8.648,10.863a2.329,2.329,0,0,1-2.109.844,5,5,0,0,1-1.055,2.32,9.42,9.42,0,0,1-4.535,3.058h-.105a10.125,10.125,0,0,1-5.59-.211,8.24,8.24,0,0,1-3.9-2.953,5.258,5.258,0,0,0,2.742,1.266v-.106a4.335,4.335,0,0,0,3.586-1.266V27.64a1.094,1.094,0,0,1-1.16-.422.47.47,0,0,1,.211-.633.823.823,0,0,1,.422-.422,2.056,2.056,0,0,1-2.109-1.055,1.586,1.586,0,0,1,1.16-.422c-1.16-.316-1.793-.949-1.9-1.793.316,0,.633-.106.949-.106a2.556,2.556,0,0,1-1.371-2.109A12.372,12.372,0,0,1,16,21.628a8.949,8.949,0,0,1,2,1.055,3.643,3.643,0,0,1,1.266.949v-.105a9.47,9.47,0,0,1,1.266-2.531,3.7,3.7,0,0,1,.844-1.055c.105-.211.316-.316.527-.527.105.105,0,.211-.211.527a2.267,2.267,0,0,1,1.371-.633c.105.106-.105.316-.527.527a3.788,3.788,0,0,1,1.16-.211c.105,0,.211.105.105.211-.105.211-.527.422-1.371.527v.106a3.172,3.172,0,0,1,2.32.844,5.152,5.152,0,0,1,1.371,2.426,3.249,3.249,0,0,0,2,0c-.211.527-.738.738-1.793.844v.106a4.068,4.068,0,0,0,1.9.105Z" transform="translate(-8.2 -13.929)"/></svg>