<svg xmlns="http://www.w3.org/2000/svg" width="22.781" height="22.781" viewBox="0 0 22.781 22.781"><defs><style>.a{fill:#581008;fill-rule:evenodd;}</style></defs><path class="a" d="M18.223,17.325q.088.029,3.576,1.854.78.412.78.427l-4.356,2.252V17.325ZM20.4,13.911q-1.3,0-2.958.044a23.977,23.977,0,0,0-3.208.191,2.155,2.155,0,0,0-1.251.736,4.39,4.39,0,0,0-.53,1.457q-.132,1.457-.132,2.6a18.28,18.28,0,0,0,.265,4.253,6.672,6.672,0,0,0,.221.809,2.206,2.206,0,0,0,1.266,1l.648.074a9.4,9.4,0,0,0,1.5.118q2.914.074,4.253.074,1.192,0,3.105-.029a27.16,27.16,0,0,0,2.87-.177,1.92,1.92,0,0,0,.986-.412A2.192,2.192,0,0,0,28.1,23.7a10.219,10.219,0,0,0,.4-3.444v-1.31a23.839,23.839,0,0,0-.162-2.6,3.071,3.071,0,0,0-.633-1.575q-.221-.236-.309-.25a1.626,1.626,0,0,0-.883-.368,44.47,44.47,0,0,0-6.107-.235ZM20.408,8.2A11.391,11.391,0,1,1,9.018,19.591,11.391,11.391,0,0,1,20.408,8.2Z" transform="translate(-9.018 -8.2)"/></svg>