<svg xmlns="http://www.w3.org/2000/svg" width="18.109" height="18" viewBox="0 0 18.109 18"><defs><style>.a{fill:#f0f0f0;}.b{fill:#0052b4;}.c{fill:#d80027;}</style></defs><g transform="translate(0.153 -0.311)"><circle class="a" cx="9" cy="9" r="9" transform="translate(-0.153 0.311)"/><g transform="translate(0.435 0.749)"><path class="b" d="M10.355,100.142a8.882,8.882,0,0,0-1.536,3.1h4.637Z" transform="translate(-8.819 -96.962)"/><path class="b" d="M374.642,103.245a8.883,8.883,0,0,0-1.536-3.1l-3.1,3.1Z" transform="translate(-357.428 -96.963)"/><path class="b" d="M8.819,322.784a8.883,8.883,0,0,0,1.536,3.1l3.1-3.1Z" transform="translate(-8.819 -311.851)"/><path class="b" d="M325.884,10.355a8.882,8.882,0,0,0-3.1-1.536v4.637Z" transform="translate(-311.849 -8.819)"/><path class="b" d="M100.142,373.107a8.883,8.883,0,0,0,3.1,1.536v-4.637Z" transform="translate(-96.962 -357.428)"/><path class="b" d="M103.244,8.819a8.883,8.883,0,0,0-3.1,1.536l3.1,3.1Z" transform="translate(-96.962 -8.819)"/><path class="b" d="M322.783,374.642a8.883,8.883,0,0,0,3.1-1.536l-3.1-3.1Z" transform="translate(-311.85 -357.428)"/><path class="b" d="M370.005,322.784l3.1,3.1a8.882,8.882,0,0,0,1.536-3.1Z" transform="translate(-357.428 -311.851)"/></g><g transform="translate(0.127 0.442)"><path class="c" d="M17.753,7.752H10.077V.075a9,9,0,0,0-2.325,0V7.752H.075a9,9,0,0,0,0,2.325H7.752v7.676a9,9,0,0,0,2.325,0V10.077h7.676a9,9,0,0,0,0-2.325Z"/><path class="c" d="M322.783,322.783h0l3.978,3.978q.274-.274.524-.572l-3.406-3.406h-1.1Z" transform="translate(-311.543 -311.543)"/><path class="c" d="M78.958,322.784h0l-3.978,3.978q.274.274.572.524l3.406-3.406Z" transform="translate(-72.369 -311.544)"/><path class="c" d="M64.435,78.958h0L60.457,74.98q-.274.274-.524.572l3.406,3.406h1.1Z" transform="translate(-57.846 -72.369)"/><path class="c" d="M322.783,64.436h0l3.978-3.978q-.274-.274-.572-.524l-3.406,3.406Z" transform="translate(-311.543 -57.847)"/></g></g></svg>